<?xml version="1.0" standalone="no"?>
<!DOCTYPE svg PUBLIC "-//W3C//DTD SVG 1.1//EN" "http://www.w3.org/Graphics/SVG/1.1/DTD/svg11.dtd" >
<svg xmlns="http://www.w3.org/2000/svg">
<metadata>Generated by IcoMoon</metadata>
<defs>
<font id="tronkericon" horiz-adv-x="1024">
<font-face units-per-em="1024" ascent="960" descent="-64" />
<missing-glyph horiz-adv-x="1024" />
<glyph unicode="&#x20;" horiz-adv-x="512" d="" />
<glyph unicode="&#xe900;" glyph-name="scancode" d="M213.333 597.333v170.675c0 11.848 9.451 21.325 21.325 21.325h170.675c11.782 0 21.333 9.551 21.333 21.333s-9.551 21.333-21.333 21.333h-170.675c-35.464 0-63.992-28.605-63.992-63.992v-170.675c0-11.782 9.551-21.333 21.333-21.333s21.333 9.551 21.333 21.333v0zM170.667 341.333v-170.675c0-35.387 28.528-63.992 63.992-63.992h170.675c11.782 0 21.333 9.551 21.333 21.333s-9.551 21.333-21.333 21.333h-170.675c-11.874 0-21.325 9.477-21.325 21.325v170.675c0 11.782-9.551 21.333-21.333 21.333s-21.333-9.551-21.333-21.333v0zM853.333 341.333v-170.675c0-11.848-9.451-21.325-21.325-21.325h-170.675c-11.782 0-21.333-9.551-21.333-21.333s9.551-21.333 21.333-21.333h170.675c35.464 0 63.992 28.605 63.992 63.992v170.675c0 11.782-9.551 21.333-21.333 21.333s-21.333-9.551-21.333-21.333v0zM896 597.333v170.675c0 35.387-28.528 63.992-63.992 63.992h-170.675c-11.782 0-21.333-9.551-21.333-21.333s9.551-21.333 21.333-21.333h170.675c11.874 0 21.325-9.477 21.325-21.325v-170.675c0-11.782 9.551-21.333 21.333-21.333s21.333 9.551 21.333 21.333v0zM192 448h682.667c11.782 0 21.333 9.551 21.333 21.333s-9.551 21.333-21.333 21.333h-682.667c-11.782 0-21.333-9.551-21.333-21.333s9.551-21.333 21.333-21.333v0z" />
<glyph unicode="&#xe901;" glyph-name="android" d="M270.029 402.509v121.773c-0.008 26.891-22.252 48.692-49.681 48.692s-49.673-21.801-49.681-48.692v0-204.598c0.008-26.891 22.252-48.692 49.681-48.692s49.673 21.801 49.681 48.692v0 82.826zM737.036 604.993c-0.649 6.657-1.678 13.228-3.064 19.679-12.302 57.122-52.95 105.505-108.703 133.607l34.292 62.030c2.129 3.847 0.673 8.652-3.246 10.734s-8.818 0.649-10.948-3.19l-34.728-62.822c-29.519 12.436-62.616 19.418-97.589 19.418-35.234 0-68.569-7.077-98.254-19.695l-34.886 63.099c-2.129 3.839-7.029 5.272-10.948 3.19s-5.375-6.887-3.246-10.734l34.474-62.363c-53.14-26.986-92.467-72.448-106.408-126.308-3.618-13.98-5.541-28.514-5.541-43.443 0-2.24 0.063-4.465 0.142-6.681h448.65v23.479zM737.448 564.463h-449.616v-321.091c0-26.796 22.355-48.715 49.681-48.715h41.868v-111.909c0.008-26.891 22.252-48.692 49.681-48.692 27.437 0 49.673 21.801 49.681 48.692v111.909h67.793v-111.909c0.008-26.891 22.244-48.692 49.681-48.692 27.429 0 49.673 21.801 49.681 48.692v111.909h41.868c27.326 0 49.681 21.92 49.681 48.715v321.091zM854.613 402.509v121.773c-0.008 26.891-22.252 48.692-49.681 48.692s-49.673-21.801-49.681-48.692v0-204.598c0.008-26.891 22.252-48.692 49.681-48.692s49.673 21.801 49.681 48.692v82.826zM410.38 700.849c11.66 0 21.112-9.27 21.112-20.7s-9.452-20.7-21.112-20.7c-11.66 0-21.12 9.27-21.12 20.7s9.46 20.7 21.12 20.7v0zM614.9 700.849c11.66 0 21.12-9.27 21.12-20.7s-9.46-20.7-21.12-20.7c-11.66 0-21.112 9.27-21.112 20.7s9.452 20.7 21.112 20.7v0z" />
<glyph unicode="&#xe902;" glyph-name="arrow_chevron_down" d="M496.915 347.582c8.331-8.331 21.839-8.331 30.17 0l192 192c8.331 8.331 8.331 21.839 0 30.17s-21.839 8.331-30.17 0l-177.020-176.81-176.81 176.81c-8.331 8.331-21.839 8.331-30.17 0s-8.331-21.839 0-30.17l192-192z" />
<glyph unicode="&#xe903;" glyph-name="arrow_chevron_left" d="M411.582 463.085c-8.331-8.331-8.331-21.839 0-30.17l192-192c8.331-8.331 21.839-8.331 30.17 0s8.331 21.839 0 30.17l-176.81 177.020 176.81 176.81c8.331 8.331 8.331 21.839 0 30.17s-21.839 8.331-30.17 0l-192-192z" />
<glyph unicode="&#xe904;" glyph-name="arrow_chevron_right" d="M612.418 463.085c8.331-8.331 8.331-21.839 0-30.17l-192-192c-8.331-8.331-21.839-8.331-30.17 0s-8.331 21.839 0 30.17l176.81 177.020-176.81 176.81c-8.331 8.331-8.331 21.839 0 30.17s21.839 8.331 30.17 0l192-192z" />
<glyph unicode="&#xe905;" glyph-name="arrow_chevron_up" d="M527.085 548.418c-8.331 8.331-21.839 8.331-30.17 0l-192-192c-8.331-8.331-8.331-21.839 0-30.17s21.839-8.331 30.17 0l177.020 176.81 176.81-176.81c8.331-8.331 21.839-8.331 30.17 0s8.331 21.839 0 30.17l-192 192z" />
<glyph unicode="&#xe906;" glyph-name="arrow_double" d="M597.333 192.043c0-19.806 24.641-28.921 37.531-13.884l128 149.333c7.668 8.946 6.632 22.413-2.314 30.081s-22.413 6.632-30.081-2.314l-90.469-105.397v454.18c0 11.782-9.551 21.333-21.333 21.333s-21.333-9.551-21.333-21.333v-512zM426.667 704c0 19.806-24.641 28.921-37.531 13.884l-128-149.333c-7.668-8.946-6.632-22.413 2.314-30.081s22.413-6.632 30.081 2.314l90.469 105.397v-454.18c0-11.782 9.551-21.333 21.333-21.333s21.333 9.551 21.333 21.333v512z" />
<glyph unicode="&#xe907;" glyph-name="arrow_down" d="M554.667 789.333c0 11.782-9.551 21.333-21.333 21.333s-21.333-9.551-21.333-21.333v-647.222l-261.278 298.604c-7.759 8.867-21.236 9.765-30.103 2.007s-9.765-21.236-2.007-30.103l298.667-341.333c8.499-9.714 23.61-9.714 32.11 0l298.667 341.333c7.759 8.867 6.86 22.345-2.007 30.103s-22.345 6.86-30.103-2.007l-261.278-298.604v647.222z" />
<glyph unicode="&#xe908;" glyph-name="arrow_left" d="M206.111 490.667h647.222c11.782 0 21.333-9.551 21.333-21.333s-9.551-21.333-21.333-21.333h-647.222l298.604-261.278c8.867-7.759 9.765-21.236 2.007-30.103s-21.236-9.765-30.103-2.007l-341.333 298.667c-9.714 8.499-9.714 23.61 0 32.11l341.333 298.667c8.867 7.759 22.345 6.86 30.103-2.007s6.86-22.345-2.007-30.103l-298.604-261.278z" />
<glyph unicode="&#xe909;" glyph-name="arrow_right" d="M817.889 490.667h-647.222c-11.782 0-21.333-9.551-21.333-21.333s9.551-21.333 21.333-21.333h647.222l-298.604-261.278c-8.867-7.759-9.765-21.236-2.007-30.103s21.236-9.765 30.103-2.007l341.333 298.667c9.714 8.499 9.714 23.61 0 32.11l-341.333 298.667c-8.867 7.759-22.345 6.86-30.103-2.007s-6.86-22.345 2.007-30.103l298.604-261.278z" />
<glyph unicode="&#xe90a;" glyph-name="arrow_triangle_down" d="M341.333 533.333h341.333l-170.667-213.333z" />
<glyph unicode="&#xe90b;" glyph-name="arrow_triangle_left" d="M597.333 618.667v-341.333l-213.333 170.667z" />
<glyph unicode="&#xe90c;" glyph-name="arrow_triangle_right" d="M426.667 618.667v-341.333l213.333 170.667z" />
<glyph unicode="&#xe90d;" glyph-name="arrow_triangle_up" d="M682.667 362.667h-341.333l170.667 213.333z" />
<glyph unicode="&#xe90e;" glyph-name="arrow_up" d="M554.667 753.889v-647.222c0-11.782-9.551-21.333-21.333-21.333s-21.333 9.551-21.333 21.333v647.222l-261.278-298.604c-7.759-8.867-21.236-9.765-30.103-2.007s-9.765 21.236-2.007 30.103l298.667 341.333c8.499 9.714 23.61 9.714 32.11 0l298.667-341.333c7.759-8.867 6.86-22.345-2.007-30.103s-22.345-6.86-30.103 2.007l-261.278 298.604z" />
<glyph unicode="&#xe90f;" glyph-name="attachment" d="M647.666 454.149l135.978 135.978c74.927 74.927 74.866 196.434-0.115 271.414-74.886 74.886-196.538 74.991-271.414 0.115l-332.121-332.121c-108.020-108.020-108.060-283.873 0.138-392.071 108.17-108.17 283.98-108.229 392.228 0.020l301.659 301.659c8.331 8.331 8.331 21.839 0 30.17s-21.839 8.331-30.17 0l-301.659-301.659c-91.582-91.582-240.377-91.532-331.889-0.020-91.532 91.532-91.499 240.37-0.138 331.731l332.121 332.121c58.202 58.202 152.839 58.121 211.075-0.115 58.325-58.325 58.373-152.817 0.115-211.075l-331.9-331.9c-25.134-25.134-65.461-25.215-90.593-0.083-25.025 25.025-25.019 65.491 0.083 90.593l301.532 301.532c8.331 8.331 8.331 21.839 0 30.17s-21.839 8.331-30.17 0l-301.532-301.532c-41.763-41.763-41.773-109.243-0.083-150.933 41.822-41.822 109.164-41.686 150.933 0.083l195.922 195.922z" />
<glyph unicode="&#xe910;" glyph-name="backtop" d="M469.363 607.797c28.175 37.807 74.044 37.554 102.030 0l211.152-283.341c28.175-37.807 12.776-68.456-34.111-68.456h-456.112c-47.014 0-62.097 30.902-34.111 68.456l211.152 283.341z" />
<glyph unicode="&#xe911;" glyph-name="bell" d="M418.84 61.788h-2.155c0 1.43 0.173 2.409 0.513 2.955-0.1 0.157-0.186 0.279-0.257 0.366h0.593c0.311 0.213 0.706 0.211 1.184 0h169.373c0 0-36.086-84.981-85.703-84.981-42.515 0-75.093 65.671-83.549 81.659zM809.117 248.49v277.307c0 143.126-90.214 263.889-225.536 286.252v22.363c0 17.891-25.207 40.254-43.25 40.254h-55.986c-18.043 0-40.596-22.363-40.596-40.254v-22.363c-135.321-22.363-225.536-143.126-225.536-286.252v-277.307l-90.214-98.399v-40.254h766.821v40.254l-85.703 98.399z" />
<glyph unicode="&#xe912;" glyph-name="bookmark" d="M512 277.333l262.503-250.002c13.539-13.093 36.163-3.498 36.163 15.336v725.333c0 11.782-9.551 21.333-21.333 21.333h-554.667c-11.782 0-21.333-9.551-21.333-21.333v-725.333c0-18.864 22.686-28.445 36.208-15.292l262.458 249.959zM341.333 640c0 11.782 9.492 21.333 21.746 21.333h340.509c12.010 0 21.746-9.896 21.746-21.333 0-11.782-9.492-21.333-21.746-21.333h-340.509c-12.010 0-21.746 9.896-21.746 21.333v0z" />
<glyph unicode="&#xe913;" glyph-name="calendar_l" d="M127.65 661.333c0.583 0 0.35-554.347 0.35-554.347 0-0.371 768.35-0.319 768.35-0.319-0.583 0-0.35 554.347-0.35 554.347 0 0.371-87.31-0.107-87.31-0.107-9.557-47.925-52.654-84.907-104.69-84.907-52.433 0-96.064 37.937-104.994 84.907h-174.129c-9.17-47.431-52.494-84.907-104.877-84.907-52.172 0-95.63 37.562-104.859 84.907-1.187 0-87.491 0.427-87.491 0.427zM896.35 704c23.371 0 42.317-19.154 42.317-42.986v-554.028c0-23.741-19.426-42.986-42.317-42.986h-768.699c-23.371 0-42.317 19.154-42.317 42.986v554.028c0 23.741 19.426 42.986 42.317 42.986h128.35v-21.326c0-35.236 28.654-64.007 64-64.007 35.593 0 64 28.657 64 64.007v21.326h256v-21.326c0-35.236 28.654-64.007 64-64.007 35.593 0 64 28.657 64 64.007v21.326h128.35zM147.2 448h748.8v42.667h-768v-42.667zM768 277.333c0-47.128-38.205-85.333-85.333-85.333s-85.333 38.205-85.333 85.333c0 47.128 38.205 85.333 85.333 85.333s85.333-38.205 85.333-85.333zM704 789.333c11.782 0 21.333-9.551 21.333-21.333v-85.333c0-11.782-9.551-21.333-21.333-21.333s-21.333 9.551-21.333 21.333v85.333c0 11.782 9.551 21.333 21.333 21.333zM320 789.333c11.782 0 21.333-9.551 21.333-21.333v-85.333c0-11.782-9.551-21.333-21.333-21.333s-21.333 9.551-21.333 21.333v85.333c0 11.782 9.551 21.333 21.333 21.333z" />
<glyph unicode="&#xe914;" glyph-name="calendar" d="M768 704v-21.326c0-35.35-28.407-64.007-64-64.007-35.346 0-64 28.771-64 64.007v21.326h-256v-21.326c0-35.35-28.407-64.007-64-64.007-35.346 0-64 28.771-64 64.007v21.326h-128.35c-22.891 0-42.317-19.245-42.317-42.986v-554.028c0-23.832 18.946-42.986 42.317-42.986h768.699c22.891 0 42.317 19.245 42.317 42.986v554.028c0 23.832-18.946 42.986-42.317 42.986h-128.35zM170.667 469.333c0 11.782 9.65 21.333 21.179 21.333h640.308c11.697 0 21.179-9.896 21.179-21.333 0-11.782-9.65-21.333-21.179-21.333h-640.308c-11.697 0-21.179 9.896-21.179 21.333zM682.667 192c-47.128 0-85.333 38.205-85.333 85.333s38.205 85.333 85.333 85.333c47.128 0 85.333-38.205 85.333-85.333s-38.205-85.333-85.333-85.333zM704 789.333c11.782 0 21.333-9.551 21.333-21.333v-85.333c0-11.782-9.551-21.333-21.333-21.333s-21.333 9.551-21.333 21.333v85.333c0 11.782 9.551 21.333 21.333 21.333zM320 789.333c11.782 0 21.333-9.551 21.333-21.333v-85.333c0-11.782-9.551-21.333-21.333-21.333s-21.333 9.551-21.333 21.333v85.333c0 11.782 9.551 21.333 21.333 21.333z" />
<glyph unicode="&#xe915;" glyph-name="capital_bankcard_add" d="M661.333 149.333h-491.039c-23.43 0-42.294 18.847-42.294 42.372v512.589c0 23.261 19.16 42.372 42.278 42.372h683.443c23.266 0 42.278-19.228 42.278-42.94v-319.727c0-11.782 9.551-21.333 21.333-21.333s21.333 9.551 21.333 21.333v319.727c0 47.169-38.007 85.606-84.945 85.606h-683.443c-46.658 0-84.945-38.189-84.945-85.039v-512.589c0-47.098 37.975-85.039 84.961-85.039h491.039c11.782 0 21.333 9.551 21.333 21.333s-9.551 21.333-21.333 21.333v0zM128 618.667h768v-128h-768v128zM234.667 277.333h85.333c11.782 0 21.333-9.551 21.333-21.333s-9.551-21.333-21.333-21.333h-85.333c-11.782 0-21.333 9.551-21.333 21.333s9.551 21.333 21.333 21.333zM768 277.333h-64.098c-12.068 0-21.235-9.551-21.235-21.333 0-11.437 9.507-21.333 21.235-21.333h64.098v-64.098c0-12.068 9.551-21.235 21.333-21.235 11.437 0 21.333 9.507 21.333 21.235v64.098h64.098c12.068 0 21.235 9.551 21.235 21.333 0 11.437-9.507 21.333-21.235 21.333h-64.098v64.098c0 12.068-9.551 21.235-21.333 21.235-11.437 0-21.333-9.507-21.333-21.235v-64.098zM682.97 149.637v0 0c15.654-15.654 31.489-25.947 47.322-32.359 22.754-7.585 39.396-10.61 59.041-10.61s36.286 3.026 59.041 10.61c15.46 5.153 30.982 16.019 47.322 32.359s27.206 31.863 32.359 47.322c7.585 22.754 10.61 39.396 10.61 59.041s-3.026 36.286-10.61 59.041c-5.153 15.46-16.019 30.982-32.359 47.322s-31.863 27.206-47.322 32.359c-22.754 7.585-39.396 10.61-59.041 10.61s-36.286-3.026-59.041-10.61c-15.46-5.153-30.982-16.019-47.322-32.359s-27.206-31.863-33.222-49.676c-6.248-15.62-9.748-35.748-9.748-56.687 0-19.645 3.026-36.286 10.61-59.041 5.153-15.46 16.019-30.982 32.359-47.322v0zM652.8 119.467c-17.067 17.067-34.133 38.4-42.667 64s-12.8 46.933-12.8 72.533c0 25.6 4.267 51.2 12.8 72.533 8.533 25.6 25.6 46.933 42.667 64s38.4 34.133 64 42.667c25.6 8.533 46.933 12.8 72.533 12.8s46.933-4.267 72.533-12.8c25.6-8.533 46.933-25.6 64-42.667s34.133-38.4 42.667-64c8.533-25.6 12.8-46.933 12.8-72.533s-4.267-46.933-12.8-72.533c-8.533-25.6-25.6-46.933-42.667-64s-38.4-34.133-64-42.667c-25.6-8.533-46.933-12.8-72.533-12.8s-46.933 4.267-72.533 12.8c-21.333 8.533-42.667 21.333-64 42.667v0z" />
<glyph unicode="&#xe916;" glyph-name="capital_bankcard" d="M128 704.253v0-512.507c0-23.397 18.974-42.413 42.274-42.413h683.452c23.162 0 42.274 19.098 42.274 42.413v512.507c0 23.397-18.974 42.413-42.274 42.413h-683.452c-23.162 0-42.274-19.098-42.274-42.413v0zM85.333 704.253c0 46.988 38.324 85.080 84.941 85.080h683.452c46.911 0 84.941-38.166 84.941-85.080v-512.507c0-46.988-38.324-85.080-84.941-85.080h-683.452c-46.911 0-84.941 38.166-84.941 85.080v512.507zM128 618.667h768v-128h-768v128zM234.667 277.333h85.333c11.782 0 21.333-9.551 21.333-21.333s-9.551-21.333-21.333-21.333h-85.333c-11.782 0-21.333 9.551-21.333 21.333s9.551 21.333 21.333 21.333z" />
<glyph unicode="&#xe917;" glyph-name="capital_bill" d="M853.333 789.333v-725.333c0-21.333-27.744-44.953-27.744-44.953-8.242-8.163-21.601-8.219-30.352 0.379l-27.309 26.829-27.187-26.829c-8.483-8.372-21.937-8.489-30.556 0.251l-26.894 27.274-28.15-27.755c-8.362-8.245-21.792-8.341-30.508 0.292l-27.199 26.94-27.155-26.94c-8.473-8.406-21.894-8.491-30.479 0.328l-26.791 27.521-28.401-28.006c-8.437-8.319-21.963-8.512-30.727 0.074l-27.347 26.792-27.179-26.792c-8.481-8.36-21.953-8.496-30.599 0.208l-26.978 27.16-28.034-27.639c-8.328-8.211-21.655-8.205-30.274 0.526l-26.895 27.243-28.119-27.724c-8.353-8.236-21.791-8.081-29.569 0.347 0 0-28.222 26.678-28.222 44.474v725.333h-42.531c-23.639 0-42.803 18.938-42.803 42.667 0 23.564 19.426 42.667 42.317 42.667h768.699c23.371 0 42.317-18.938 42.317-42.667 0-23.564-19.411-42.667-42.753-42.667h-42.581zM213.333 832v-759.375c0-4.763 2.799-5.826 5.933-2.692l30.801 30.801c3.276 3.276 8.732 3.133 11.865 0l30.801-30.801c3.276-3.276 8.732-3.133 11.865 0l30.801 30.801c3.276 3.276 8.732 3.133 11.865 0l30.801-30.801c3.276-3.276 8.732-3.133 11.865 0l30.801 30.801c3.276 3.276 8.732 3.133 11.865 0l30.801-30.801c3.276-3.276 8.732-3.133 11.865 0l30.801 30.801c3.276 3.276 8.732 3.133 11.865 0l30.801-30.801c3.276-3.276 8.732-3.133 11.865 0l30.801 30.801c3.276 3.276 8.732 3.133 11.865 0l30.801-30.801c3.276-3.276 8.732-3.133 11.865 0l30.801 30.801c3.276 3.276 8.732 3.133 11.865 0l30.801-30.801c3.276-3.276 8.732-3.133 11.865 0l30.801 30.801c3.276 3.276 8.732 3.133 11.865 0l30.801-30.801c3.276-3.276 5.933-2.509 5.933 2.692v759.375h-597.333zM341.333 704h341.333c11.782 0 21.333 9.551 21.333 21.333s-9.551 21.333-21.333 21.333h-341.333c-11.782 0-21.333-9.551-21.333-21.333s9.551-21.333 21.333-21.333v0zM341.333 576h256c11.782 0 21.333 9.551 21.333 21.333s-9.551 21.333-21.333 21.333h-256c-11.782 0-21.333-9.551-21.333-21.333s9.551-21.333 21.333-21.333v0zM341.333 448h341.333c11.782 0 21.333 9.551 21.333 21.333s-9.551 21.333-21.333 21.333h-341.333c-11.782 0-21.333-9.551-21.333-21.333s9.551-21.333 21.333-21.333v0zM341.333 320h170.667c11.782 0 21.333 9.551 21.333 21.333s-9.551 21.333-21.333 21.333h-170.667c-11.782 0-21.333-9.551-21.333-21.333s9.551-21.333 21.333-21.333v0z" />
<glyph unicode="&#xe918;" glyph-name="capital_cny_o" d="M512 21.333c-235.641 0-426.667 191.025-426.667 426.667s191.025 426.667 426.667 426.667c235.641 0 426.667-191.025 426.667-426.667s-191.025-426.667-426.667-426.667zM362.667 661.333l111.481-196.184h-80.878v-27.324h96.179v-53.554h-96.179v-27.324h96.179v-85.796h48.090v85.796h96.726v27.324h-96.726v53.554h96.726v27.324h-81.425l111.481 196.184h-54.101l-96.726-179.243-96.726 179.243h-54.101z" />
<glyph unicode="&#xe919;" glyph-name="capital_cny" d="M512 64v0c212.077 0 384 171.923 384 384s-171.923 384-384 384c-212.077 0-384-171.923-384-384s171.923-384 384-384v0zM512 21.333v0c-235.641 0-426.667 191.025-426.667 426.667s191.025 426.667 426.667 426.667c235.641 0 426.667-191.025 426.667-426.667s-191.025-426.667-426.667-426.667v0zM362.667 661.333l111.481-196.184h-80.878v-27.324h96.179v-53.554h-96.179v-27.324h96.179v-85.796h48.090v85.796h96.726v27.324h-96.726v53.554h96.726v27.324h-81.425l111.481 196.184h-54.101l-96.726-179.243-96.726 179.243z" />
<glyph unicode="&#xe91a;" glyph-name="capital_recharge" d="M760.889 512v-383.923c0-35.51-28.687-64.077-64.149-64.077h-369.48c-35.562 0-64.149 28.628-64.149 64.077v383.923h-92.444c-19.006 0-28.524 22.979-15.085 36.418l341.333 341.333c8.331 8.331 21.839 8.331 30.17 0l341.333-341.333c13.439-13.439 3.921-36.418-15.085-36.418h-92.444zM305.778 128.077c0-11.898 9.498-21.41 21.482-21.41h369.48c11.938 0 21.482 9.504 21.482 21.41v426.59l83.744-0.102-289.966 290.235-290.133-290.133h83.911v-426.59zM384 533.333l95.744-168.491h-69.461v-23.467h82.603v-45.995h-82.603v-23.467h82.603v-73.685h41.301v73.685h83.072v23.467h-83.072v45.995h83.072v23.467h-69.931l95.744 168.491h-46.464l-83.072-153.941-83.072 153.941z" />
<glyph unicode="&#xe91b;" glyph-name="capital_transfer" d="M384 618.667l95.744-168.491h-69.461v-23.467h82.603v-45.995h-82.603v-23.467h82.603v-73.685h41.301v73.685h83.072v23.467h-83.072v45.995h83.072v23.467h-69.931l95.744 168.491h-46.464l-83.072-153.941-83.072 153.941zM192.649 661.333h84.684c11.782 0 21.333-9.551 21.333-21.333s-9.551-21.333-21.333-21.333h-128c-11.782 0-21.333 9.551-21.333 21.333v128c0 11.782 9.551 21.333 21.333 21.333s21.333-9.551 21.333-21.333v-63.923c79.406 105.807 204.703 170.589 341.333 170.589 235.641 0 426.667-191.025 426.667-426.667 0-11.782-9.551-21.333-21.333-21.333s-21.333 9.551-21.333 21.333c0 212.077-171.923 384-384 384-130.191 0-248.919-65.328-319.351-170.667v0zM831.351 234.667h-84.684c-11.782 0-21.333 9.551-21.333 21.333s9.551 21.333 21.333 21.333h128c11.782 0 21.333-9.551 21.333-21.333v-128c0-11.782-9.551-21.333-21.333-21.333s-21.333 9.551-21.333 21.333v63.923c-79.411-105.813-204.709-170.59-341.333-170.59-235.641 0-426.667 191.025-426.667 426.667 0 11.782 9.551 21.333 21.333 21.333s21.333-9.551 21.333-21.333c0-212.077 171.923-384 384-384 130.185 0 248.914 65.322 319.351 170.667v0z" />
<glyph unicode="&#xe91c;" glyph-name="capital_wallet" d="M938.667 256v-127.708c0-23.725-19.426-42.959-42.317-42.959h-768.699c-23.371 0-42.317 19.198-42.317 42.959v575.708c0 35.178 28.81 64 63.65 64h768.699c11.782 0 21.333-9.551 21.333-21.333s-9.551-21.333-21.333-21.333h-768.699c-11.272 0-20.984-9.715-20.984-21.333 0-11.916 9.365-21.333 20.984-21.333h747.366c23.371 0 42.317-19.198 42.317-42.959v-127.708h-298.771c-23.519 0-42.562-18.926-42.562-42.273v-171.454c0-23.032 19.056-42.273 42.562-42.273h298.771zM640 448.406c0 11.558 9.847 20.927 21.352 20.927h319.981v-170.667h-319.981c-11.792 0-21.352 9.176-21.352 20.927v128.813zM768 341.333c23.564 0 42.667 19.103 42.667 42.667s-19.103 42.667-42.667 42.667c-23.564 0-42.667-19.103-42.667-42.667s19.103-42.667 42.667-42.667z" />
<glyph unicode="&#xe91d;" glyph-name="capital_withdrawals" d="M760.889 384v383.923c0 35.51-28.687 64.077-64.149 64.077h-369.48c-35.562 0-64.149-28.628-64.149-64.077v-383.923h-92.444c-19.006 0-28.524-22.979-15.085-36.418l341.333-341.333c8.331-8.331 21.839-8.331 30.17 0l341.333 341.333c13.439 13.439 3.921 36.418-15.085 36.418h-92.444zM305.778 767.923c0 11.898 9.498 21.41 21.482 21.41h369.48c11.938 0 21.482-9.504 21.482-21.41v-426.59l83.744 0.102-289.966-290.235-290.133 290.133h83.911v426.59zM384 697.771l95.744-168.491h-69.461v-23.467h82.603v-45.995h-82.603v-23.467h82.603v-73.685h41.301v73.685h83.072v23.467h-83.072v45.995h83.072v23.467h-69.931l95.744 168.491h-46.464l-83.072-153.941-83.072 153.941z" />
<glyph unicode="&#xe91e;" glyph-name="Chart" d="M128 64h768.223c11.782 0 21.333 9.551 21.333 21.333s-9.551 21.333-21.333 21.333h-768.223c-11.782 0-21.333-9.551-21.333-21.333s9.551-21.333 21.333-21.333v0zM426.667 512c35.346 0 64 28.654 64 64s-28.654 64-64 64c-35.346 0-64-28.654-64-64s28.654-64 64-64v0zM426.667 554.667c-11.782 0-21.333 9.551-21.333 21.333s9.551 21.333 21.333 21.333c11.782 0 21.333-9.551 21.333-21.333s-9.551-21.333-21.333-21.333v0zM554.667 384c35.346 0 64 28.654 64 64s-28.654 64-64 64c-35.346 0-64-28.654-64-64s28.654-64 64-64v0zM554.667 426.667c-11.782 0-21.333 9.551-21.333 21.333s9.551 21.333 21.333 21.333c11.782 0 21.333-9.551 21.333-21.333s-9.551-21.333-21.333-21.333v0zM768 597.333c35.346 0 64 28.654 64 64s-28.654 64-64 64c-35.346 0-64-28.654-64-64s28.654-64 64-64v0zM768 640c-11.782 0-21.333 9.551-21.333 21.333s9.551 21.333 21.333 21.333c11.782 0 21.333-9.551 21.333-21.333s-9.551-21.333-21.333-21.333v0zM256 341.333c35.346 0 64 28.654 64 64s-28.654 64-64 64c-35.346 0-64-28.654-64-64s28.654-64 64-64v0zM256 384c-11.782 0-21.333 9.551-21.333 21.333s9.551 21.333 21.333 21.333c11.782 0 21.333-9.551 21.333-21.333s-9.551-21.333-21.333-21.333v0zM368.915 548.418l-85.333-85.333c-8.331-8.331-8.331-21.839 0-30.17s21.839-8.331 30.17 0l85.333 85.333c8.331 8.331 8.331 21.839 0 30.17s-21.839 8.331-30.17 0v0zM710.248 633.752l-140.592-140.592c-8.331-8.331-8.331-21.839 0-30.17s21.839-8.331 30.17 0l140.592 140.592c8.331 8.331 8.331 21.839 0 30.17s-21.839 8.331-30.17 0v0zM454.248 518.248l42.667-42.667c8.331-8.331 21.839-8.331 30.17 0s8.331 21.839 0 30.17l-42.667 42.667c-8.331 8.331-21.839 8.331-30.17 0s-8.331-21.839 0-30.17v0z" />
<glyph unicode="&#xe91f;" glyph-name="checkticket" d="M170.667 64h639.963c11.782 0 21.333 9.551 21.333 21.333s-9.551 21.333-21.333 21.333h-639.963c-11.782 0-21.333-9.551-21.333-21.333s9.551-21.333 21.333-21.333v0zM853.333 360.159v-125.44c0 0.039-0.091-0.053-0.009-0.053h-725.315c0.118 0-0.009 0.128-0.009 0.053v125.281l-21.333-21.333c60.383 0 109.333 48.95 109.333 109.333s-48.95 109.333-109.333 109.333l21.333-21.333v125.281c0-0.039 0.091 0.053 0.009 0.053h725.315c-0.118 0 0.009-0.128 0.009-0.053v-125.44l20.060 21.295c-57.565-3.441-102.727-51.217-102.727-109.136s45.162-105.695 102.727-109.136l-20.060 21.295zM896 360.159c0 11.288-8.793 20.622-20.060 21.295-35.062 2.096-62.606 31.235-62.606 66.546s27.544 64.45 62.606 66.546c11.268 0.674 20.060 10.008 20.060 21.295v125.44c0 23.399-19.14 42.719-42.676 42.719h-725.315c-23.453 0-42.676-19.165-42.676-42.719v-125.281c0-11.782 9.551-21.333 21.333-21.333 36.819 0 66.667-29.848 66.667-66.667s-29.848-66.667-66.667-66.667c-11.782 0-21.333-9.551-21.333-21.333v-125.281c0-23.399 19.14-42.719 42.676-42.719h725.315c23.453 0 42.676 19.165 42.676 42.719v125.44zM642.667 565.333c0-16.2-13.133-29.333-29.333-29.333s-29.333 13.133-29.333 29.333c0 16.2 13.133 29.333 29.333 29.333s29.333-13.133 29.333-29.333zM642.667 448c0-16.2-13.133-29.333-29.333-29.333s-29.333 13.133-29.333 29.333c0 16.2 13.133 29.333 29.333 29.333s29.333-13.133 29.333-29.333zM642.667 330.667c0-16.2-13.133-29.333-29.333-29.333s-29.333 13.133-29.333 29.333c0 16.2 13.133 29.333 29.333 29.333s29.333-13.133 29.333-29.333z" />
<glyph unicode="&#xe920;" glyph-name="circle" d="M551.209 192.491c168.416 9.273 302.124 148.777 302.124 319.509 0 176.731-143.269 320-320 320s-320-143.269-320-320c0-11.907 0.65-23.662 1.917-35.231 26.147 9.007 54.21 13.898 83.416 13.898 141.385 0 256-114.615 256-256 0-14.366-1.183-28.455-3.458-42.176zM641.888 256.717c-14.227-6.058-29.065-10.961-44.394-14.591 0.187 4.335 0.537 8.649 1.047 12.934 10.177 85.355 82.799 150.274 169.459 150.274 7.069 0 14.037-0.43 20.881-1.265-6.119-14.47-13.431-28.313-21.814-41.405-62.286-0.447-114.729-45.623-125.179-105.946v0zM512 234.667c0-117.821-95.513-213.333-213.333-213.333s-213.333 95.513-213.333 213.333c0 117.821 95.513 213.333 213.333 213.333s213.333-95.513 213.333-213.333zM868.308 372.759c42.641-31.027 70.359-81.323 70.359-138.093 0-94.257-76.41-170.667-170.667-170.667-66.927 0-124.856 38.524-152.823 94.606 114.774 26.474 208.714 107.422 253.13 214.153z" />
<glyph unicode="&#xe921;" glyph-name="clock_o" d="M512 21.333c-235.641 0-426.667 191.025-426.667 426.667s191.025 426.667 426.667 426.667c235.641 0 426.667-191.025 426.667-426.667s-191.025-426.667-426.667-426.667zM469.333 426.667c0-11.782 9.551-21.333 21.333-21.333h170.667c11.782 0 21.333 9.551 21.333 21.333s-9.551 21.333-21.333 21.333h-149.333v149.333c0 11.782-9.551 21.333-21.333 21.333s-21.333-9.551-21.333-21.333v-170.667z" />
<glyph unicode="&#xe922;" glyph-name="clock" d="M512 64v0c212.077 0 384 171.923 384 384s-171.923 384-384 384c-212.077 0-384-171.923-384-384s171.923-384 384-384v0zM512 21.333v0c-235.641 0-426.667 191.025-426.667 426.667s191.025 426.667 426.667 426.667c235.641 0 426.667-191.025 426.667-426.667s-191.025-426.667-426.667-426.667v0zM469.333 426.667c0-11.782 9.551-21.333 21.333-21.333h170.667c11.782 0 21.333 9.551 21.333 21.333s-9.551 21.333-21.333 21.333h-149.333v149.333c0 11.782-9.551 21.333-21.333 21.333s-21.333-9.551-21.333-21.333v-170.667z" />
<glyph unicode="&#xe923;" glyph-name="close" d="M512 478.17l256.444 256.444c8.331 8.331 21.839 8.331 30.17 0s8.331-21.839 0-30.17l-256.444-256.444 256.444-256.444c8.331-8.331 8.331-21.839 0-30.17s-21.839-8.331-30.17 0l-256.444 256.444-256.444-256.444c-8.331-8.331-21.839-8.331-30.17 0s-8.331 21.839 0 30.17l256.444 256.444-256.444 256.444c-8.331 8.331-8.331 21.839 0 30.17s21.839 8.331 30.17 0l256.444-256.444z" />
<glyph unicode="&#xe924;" glyph-name="comment_left" d="M128 277.269c0-23.529 18.932-42.603 42.658-42.603h170.675v-128l170.667 128h341.438c23.506 0 42.562 19.093 42.562 42.603v469.461c0 23.529-18.984 42.603-42.385 42.603h-683.23c-23.409 0-42.385-19.093-42.385-42.603v-469.461zM341.333 490.667c-23.273 0-42.667 19.394-42.667 42.667s19.394 42.667 42.667 42.667c23.273 0 42.667-19.394 42.667-42.667s-19.394-42.667-42.667-42.667v0zM512 490.667c-23.273 0-42.667 19.394-42.667 42.667s19.394 42.667 42.667 42.667c23.273 0 42.667-19.394 42.667-42.667s-19.394-42.667-42.667-42.667v0zM682.667 490.667c-23.273 0-42.667 19.394-42.667 42.667s19.394 42.667 42.667 42.667c23.273 0 42.667-19.394 42.667-42.667s-19.394-42.667-42.667-42.667v0z" />
<glyph unicode="&#xe925;" glyph-name="comment_right" d="M896 277.269c0-23.529-18.932-42.603-42.658-42.603h-170.675v-128l-170.667 128h-341.438c-23.506 0-42.562 19.093-42.562 42.603v469.461c0 23.529 18.984 42.603 42.385 42.603h683.23c23.409 0 42.385-19.093 42.385-42.603v-469.461zM725.333 512c0 11.782-9.713 21.333-21.745 21.333h-383.177c-12.009 0-21.745-9.896-21.745-21.333 0-11.782 9.713-21.333 21.745-21.333h383.177c12.009 0 21.745 9.896 21.745 21.333zM640 384c0 11.782-9.847 21.333-21.352 21.333h-298.629c-11.792 0-21.352-9.896-21.352-21.333 0-11.782 9.847-21.333 21.352-21.333h298.629c11.792 0 21.352 9.896 21.352 21.333zM725.333 640c0 11.782-9.713 21.333-21.745 21.333h-383.177c-12.009 0-21.745-9.896-21.745-21.333 0-11.782 9.713-21.333 21.745-21.333h383.177c12.009 0 21.745 9.896 21.745 21.333z" />
<glyph unicode="&#xe926;" glyph-name="compress" d="M353.83 320h-161.83c-11.782 0-21.333 9.551-21.333 21.333s9.551 21.333 21.333 21.333h192.098c23.786 0 42.568-18.992 42.568-42.568v-192.098c0-11.782-9.551-21.333-21.333-21.333s-21.333 9.551-21.333 21.333v161.83l-219.582-219.582c-8.331-8.331-21.839-8.331-30.17 0s-8.331 21.839 0 30.17l219.582 219.582zM670.17 576h161.83c11.782 0 21.333-9.551 21.333-21.333s-9.551-21.333-21.333-21.333h-192.098c-23.786 0-42.568 18.992-42.568 42.568v192.098c0 11.782 9.551 21.333 21.333 21.333s21.333-9.551 21.333-21.333v-161.83l219.582 219.582c8.331 8.331 21.839 8.331 30.17 0s8.331-21.839 0-30.17l-219.582-219.582z" />
<glyph unicode="&#xe927;" glyph-name="computer" d="M469.333 192v-43.544l-128-13.93v-27.859h341.333v26.104l-128 15.685v43.544zM490.667 320h42.667c11.782 0 21.333-9.551 21.333-21.333s-9.551-21.333-21.333-21.333h-42.667c-11.782 0-21.333 9.551-21.333 21.333s9.551 21.333 21.333 21.333zM128 789.311v0-42.617c0-0.029-0.051-0.025-0.35-0.025h768.699c-0.583 0-0.35 0.018-0.35 0.025v42.617c0 0.029 0.051 0.025 0.35 0.025h-768.699c0.583 0 0.35-0.018 0.35-0.025v0zM128 362.595v0-127.851c0-0.086-0.051-0.074-0.35-0.074h768.699c-0.583 0-0.35 0.054-0.35 0.074v127.851c0 0.086 0.051 0.074 0.35 0.074h-768.699c0.583 0 0.35-0.054 0.35-0.074v0zM85.333 789.014c0 23.741 19.426 42.986 42.317 42.986h768.699c23.371 0 42.317-19.154 42.317-42.986v-554.028c0-23.741-19.426-42.986-42.317-42.986h-768.699c-23.371 0-42.317 19.154-42.317 42.986v554.028z" />
<glyph unicode="&#xe928;" glyph-name="contacts" d="M853.333 618.667h42.667c23.564 0 42.667 18.916 42.667 43.066v84.534c0 23.785-18.938 43.066-42.667 43.066h-42.667v-170.667zM853.333 405.333h42.667c23.564 0 42.667 18.916 42.667 43.066v84.534c0 23.785-18.938 43.066-42.667 43.066h-42.667v-170.667zM853.333 192h42.667c23.564 0 42.667 18.916 42.667 43.066v84.534c0 23.785-18.938 43.066-42.667 43.066h-42.667v-170.667zM810.667 832v0.35c0 22.891-19.102 42.317-42.665 42.317h-640.003c-23.264 0-42.665-18.946-42.665-42.317v-768.699c0-22.891 19.102-42.317 42.665-42.317h640.003c23.264 0 42.665 18.946 42.665 42.317v725.683h-661.741c-11.557 0-20.926 9.896-20.926 21.333 0 11.782 9.171 21.333 20.926 21.333h661.741zM612.741 336.983c24.443-8.335 62.373-12.46 68.387-41.079 1.623-12.403 5.314-40.314-10.941-45.077-14.038-4.111-29.192-6.379-43.706-8.335-48.47-6.535-96.597-7.825-145.423-7.825-31.142 1.8-62.224 5.089-93.039 9.752-14.112 2.14-40.089 1.758-44.153 16.798-6.446 23.814-1.533 53.199 25.738 62.385 17.491 5.883 34.685 12.786 52.653 17.435 16.777 4.338 32.72 10.674 40.937 26.309 2.065 3.941 2.564 9.407 2.342 14.538-4.803 4.338-9.197 8.704-13.099 12.55-7.369 7.265-12.981 24.305-16.27 36.66-0.481 0.453-1.227 0.811-2.447 1.103-3.171 0.751-5.88 4.536-8.039 6.591-5.895 11.241-8.202 24.509 1.786 34.020 0 35.735 6.282 81.946 48.231 95.257 24.25 15.394 72.079 6.535 92.354-10.745 14.99-12.786 22.85-31.596 25.709-50.123 1.504-9.852 3.305-19.264 3.394-29.286 0.060-6.237 3.111-11.453 4.912-17.45 1.742-5.826-0.313-17.308-4.898-21.674-2.758-2.627-5.281-4.062-7.417-5.653-4.191-14.060-12.214-36.317-22.873-44.35-2.797-2.108-5.775-4.571-8.914-7.169-2.159-26.337 32.108-36.924 54.775-44.634zM170.667 789.333h42.667v-768h-42.667v768z" />
<glyph unicode="&#xe929;" glyph-name="copy" d="M384 789.041v0-511.416c0-0.179 0.113-0.292 0.292-0.292h511.416c0.179 0 0.292 0.113 0.292 0.292v511.416c0 0.179-0.113 0.292-0.292 0.292h-511.416c-0.179 0-0.292-0.113-0.292-0.292v0zM341.333 789.041c0 23.725 19.198 42.959 42.959 42.959h511.416c23.725 0 42.959-19.198 42.959-42.959v-511.416c0-23.725-19.198-42.959-42.959-42.959h-511.416c-23.725 0-42.959 19.198-42.959 42.959v511.416zM725.333 170.667v-85.333l21.333 21.333h-554.667l21.333-21.333v554.667l-21.333-21.333h85.333c11.782 0 21.333 9.551 21.333 21.333s-9.551 21.333-21.333 21.333h-85.333c-11.782 0-21.333-9.551-21.333-21.333v-554.667c0-11.782 9.551-21.333 21.333-21.333h554.667c11.782 0 21.333 9.551 21.333 21.333v85.333c0 11.782-9.551 21.333-21.333 21.333s-21.333-9.551-21.333-21.333v0z" />
<glyph unicode="&#xe92a;" glyph-name="customerservice" d="M149.856 320.001c0.032-0.091 0.064-0.182 0.097-0.273 3.935-11.106 16.127-16.919 27.233-12.984s16.919 16.127 12.984 27.233c-12.855 36.282-19.503 74.683-19.503 114.023 0 188.513 152.82 341.333 341.333 341.333s341.333-152.82 341.333-341.333c0-140.437-85.576-264.221-211.854-315.938-6.598 4.183-14.423 6.604-22.813 6.604-23.564 0-42.667-19.103-42.667-42.667s19.103-42.667 42.667-42.667c22.924 0 41.626 18.079 42.625 40.758v0c100.172 42.233 177.097 124.937 212.801 225.911 0.191-0.001 0.383-0.002 0.575-0.002 58.91 0 106.667 47.756 106.667 106.667 0 54.864-41.422 100.054-94.699 106.003-38.558 171.34-191.649 299.331-374.635 299.331s-336.077-127.99-374.635-299.331c-53.277-5.948-94.699-51.138-94.699-106.003 0-58.91 47.756-106.667 106.667-106.667 0.174 0 0.349 0 0.523 0.001v0zM512 149.333c164.949 0 298.667 133.718 298.667 298.667s-133.718 298.667-298.667 298.667c-164.949 0-298.667-133.718-298.667-298.667s133.718-298.667 298.667-298.667v0zM512 192c-141.385 0-256 114.615-256 256s114.615 256 256 256c141.385 0 256-114.615 256-256s-114.615-256-256-256v0zM576 384.104v-21.229c0-35.6-28.463-64.208-64-64.208-35.395 0-64 28.638-64 64.208v42.458h-21.333v-21.333h170.667v21.333h-21.333v-21.229zM618.667 384.104v21.229c0 11.782-9.551 21.333-21.333 21.333h-170.667c-11.782 0-21.333-9.551-21.333-21.333v-42.458c0-59.124 47.696-106.875 106.667-106.875 59.15 0 106.667 47.76 106.667 106.875v21.229z" />
<glyph unicode="&#xe92b;" glyph-name="dashboard" d="M887.501 81.067h-751.002c-58.919 78.441-93.832 175.943-93.832 281.6 0 259.206 210.128 469.333 469.333 469.333s469.333-210.128 469.333-469.333c0-105.657-34.913-203.159-93.832-281.6zM533.333 704v84.751c-7.062 0.387-14.175 0.583-21.333 0.583s-14.271-0.196-21.333-0.583v-84.751c0-11.782 9.551-21.333 21.333-21.333s21.333 9.551 21.333 21.333zM938.084 384h-84.751c-11.782 0-21.333-9.551-21.333-21.333s9.551-21.333 21.333-21.333h84.751c0.387 7.062 0.583 14.175 0.583 21.333s-0.196 14.271-0.583 21.333v0zM170.667 384h-84.751c-0.387-7.062-0.583-14.175-0.583-21.333s0.196-14.271 0.583-21.333h84.751c11.782 0 21.333 9.551 21.333 21.333s-9.551 21.333-21.333 21.333zM598.323 222.437c9.833 17.031 24.188 61.797 42.968 129.513 1.779 6.414 3.581 12.98 5.403 19.682 7.222 26.571 14.451 54.148 21.344 81.141 4.136 16.199 7.244 28.613 8.977 35.647 5.114 20.753-20.076 35.296-35.491 20.491-5.224-5.018-14.422-13.916-26.382-25.598-19.931-19.466-40.199-39.515-59.598-59.055-4.893-4.929-9.679-9.772-14.344-14.52-49.254-50.123-80.845-84.937-90.677-101.968-26.909-46.607-17.238-104.258 24.446-128.324s96.447-3.616 123.355 42.991zM255.556 649.281l-29.758 29.758c-5.267-4.72-10.435-9.611-15.497-14.673s-9.953-10.23-14.673-15.497l29.758-29.758c8.331-8.331 21.839-8.331 30.17 0s8.331 21.839 0 30.17zM798.614 619.111l29.758 29.758c-4.72 5.267-9.611 10.435-14.673 15.497s-10.23 9.953-15.497 14.673l-29.758-29.758c-8.331-8.331-8.331-21.839 0-30.17s21.839-8.331 30.17 0z" />
<glyph unicode="&#xe92c;" glyph-name="dialogue" d="M930.133 832h-674.108c-23.578 0-42.692-18.938-42.692-42.667v-42.667h639.963c23.585 0 42.704-18.98 42.704-42.478v-426.855h42.667c23.564 0 42.667 19.122 42.667 42.925v469.46c0 23.352-19.065 42.282-42.282 42.282h-8.918zM85.333 191.936c0-23.529 18.932-42.603 42.658-42.603h170.675v-128l170.667 128h341.438c23.506 0 42.562 19.093 42.562 42.603v469.461c0 23.529-18.984 42.603-42.385 42.603h-683.23c-23.409 0-42.385-19.093-42.385-42.603v-469.461zM298.667 405.333c-23.273 0-42.667 19.394-42.667 42.667s19.394 42.667 42.667 42.667c23.273 0 42.667-19.394 42.667-42.667s-19.394-42.667-42.667-42.667v0zM469.333 405.333c-23.273 0-42.667 19.394-42.667 42.667s19.394 42.667 42.667 42.667c23.273 0 42.667-19.394 42.667-42.667s-19.394-42.667-42.667-42.667v0zM640 405.333c-23.273 0-42.667 19.394-42.667 42.667s19.394 42.667 42.667 42.667c23.273 0 42.667-19.394 42.667-42.667s-19.394-42.667-42.667-42.667v0z" />
<glyph unicode="&#xe92d;" glyph-name="done_circle" d="M128 448v0c0-212.11 171.904-384 384-384 212.11 0 384 171.904 384 384 0 212.11-171.904 384-384 384-212.11 0-384-171.904-384-384v0zM85.333 448c0 235.641 190.973 426.667 426.667 426.667 235.641 0 426.667-190.973 426.667-426.667 0-235.641-190.973-426.667-426.667-426.667-235.641 0-426.667 190.973-426.667 426.667v0zM445.448 297.842c8.305-8.335 21.791-8.372 30.142-0.083 0 0 175.159 173.875 262.739 260.813 8.339 17.427 14.738 30.227 8.339 38.761s-21.874 7.642-34.036-4.854c-61.436-63.123-247.668-253.774-251.796-249.631-41.907 42.059-125.722 126.178-125.722 126.178-8.316 8.346-21.824 8.371-30.17 0.055s-8.371-21.824-0.055-30.17l140.56-141.070z" />
<glyph unicode="&#xe92e;" glyph-name="done_double" d="M402.705 371.129v0c-0.944 1.717-2.141 3.331-3.593 4.789l-85.333 85.643c-8.316 8.346-21.824 8.371-30.17 0.055s-8.371-21.824-0.055-30.17l85.333-85.643c1.432-1.437 3.018-2.628 4.706-3.572l-92.66-91.981 30.142-0.083-210.63 211.393c-8.316 8.346-21.824 8.371-30.17 0.055s-8.371-21.824-0.055-30.17l210.63-211.393c8.305-8.335 21.791-8.372 30.142-0.083l429.37 426.224c8.362 8.3 8.411 21.808 0.111 30.17s-21.808 8.411-30.17 0.111l-307.599-305.345zM465.228 249.113v0c-8.316 8.346-8.292 21.854 0.055 30.17s21.854 8.292 30.17-0.055c21.788-21.866 21.788-21.866 28.957-29.062l-15.112-15.058-15.029 15.14 429.37 426.224c8.362 8.3 21.869 8.251 30.17-0.111s8.251-21.869-0.111-30.17l-429.37-426.224c-8.351-8.29-21.836-8.253-30.142 0.083-7.169 7.195-7.169 7.195-28.957 29.062z" />
<glyph unicode="&#xe92f;" glyph-name="done" d="M112.888 388.479l252.756-253.672c8.305-8.335 21.791-8.372 30.142-0.083l515.244 511.469c8.362 8.3 8.411 21.808 0.111 30.17s-21.808 8.411-30.17 0.111l-515.244-511.469 30.142-0.083-252.756 253.672c-8.316 8.346-21.824 8.371-30.17 0.055s-8.371-21.824-0.055-30.17v0z" />
<glyph unicode="&#xe930;" glyph-name="download" d="M725.333 183.467h28.842c21.125-0.010 51.177 5.236 81.643 21.209 43.293 22.698 72.778 61.503 80.913 118.081 4.386 68.973-22.233 118.622-68.493 151.506-25.345 18.017-50.526 27.407-68.221 31.014l17.013-22.485c0.060 0.826 0.060 0.826 0.184 3.468 0.47 11.802 0.033 26.693-1.984 43.589-2.982 24.984-8.945 49.672-18.655 72.972-27.679 66.418-80.953 110.886-163.568 121.14-78.336 8-138.643-19.754-181.97-70.375-22.703-26.525-36.049-53.008-42.117-71.51l35.050 8.737c-4.216 4.050-11.224 9.404-20.838 14.616-33.497 18.159-73.020 20.385-114.092-3.343-20.137-12.411-34.511-28.313-44.042-46.927-12.064-23.563-15.129-47.789-13.317-68.769 0.17-1.973 0.332-3.287 0.516-4.504l17.017 24.239c-18.355-3.559-44.513-13.067-70.842-31.57-44.555-31.311-71.704-78.022-71.704-141.158 1.407-64.021 31.631-106.873 79.915-130.648 28.905-14.233 57.341-19.085 77.267-19.28l34.818-0.001c11.782 0 21.333 9.551 21.333 21.333s-9.551 21.333-21.333 21.333h-34.609c-2.977 0.030-9.31 0.529-17.677 1.956-14.053 2.398-28.071 6.594-40.95 12.936-34.636 17.055-55.069 46.026-56.102 92.841 0.005 47.953 19.834 82.067 53.575 105.779 12.049 8.467 25.070 14.968 38.085 19.699 7.686 2.794 13.471 4.336 16.346 4.894 11.27 2.185 18.79 12.897 17.017 24.239 0.014-0.134-0.078 0.616-0.162 1.584-1.183 13.692 0.916 30.279 8.787 45.653 6.045 11.808 15.101 21.826 27.935 29.743 26.606 15.361 50.585 14.010 71.885 2.463 5.945-3.223 9.978-6.304 11.616-7.877 11.335-10.888 30.152-6.197 35.050 8.737 1.002 3.055 3.444 9.108 7.49 17.137 6.861 13.615 15.656 27.256 26.5 39.925 34.698 40.54 81.683 62.163 144.761 55.725 66.151-8.216 106.932-42.256 128.979-95.159 14.225-34.135 18.517-70.095 17.389-98.451-0.089-1.874-0.089-1.874-0.1-2.001-0.796-10.709 6.491-20.34 17.013-22.485 2.728-0.556 8.25-2.082 15.597-4.821 12.448-4.642 24.904-10.97 36.427-19.162 34.791-24.732 54.043-60.639 50.805-112.362-5.927-40.742-26.706-68.089-58.317-84.662-13.543-7.101-28.255-11.728-43.004-14.302-8.785-1.534-15.768-2.054-18.805-2.028h-28.864c-11.782 0-21.333-9.551-21.333-21.333s9.551-21.333 21.333-21.333v0zM490.667 224.559v202.108c0 11.782 9.551 21.333 21.333 21.333s21.333-9.551 21.333-21.333v-206.886l90.098 90.098c8.331 8.331 21.839 8.331 30.17 0s8.331-21.839 0-30.17l-124.128-124.128c-8.331-8.331-21.839-8.331-30.17 0l-128.906 128.906c-8.331 8.331-8.331 21.839 0 30.17s21.839 8.331 30.17 0l90.098-90.098z" />
<glyph unicode="&#xe931;" glyph-name="edit" d="M672.271 789.251c16.541 16.541 43.555 16.343 59.841 0.058l121.236-121.236c16.509-16.509 16.34-43.443-0.058-59.841l-377.344-377.344-181.019 181.019 377.344 377.344zM206.478 171.523c-6.693-22.755 6.325-35.778 29.084-29.084l215.242 63.306-181.019 181.019-63.306-215.242z" />
<glyph unicode="&#xe932;" glyph-name="ellipsis_circle" d="M512 64v0c212.077 0 384 171.923 384 384s-171.923 384-384 384c-212.077 0-384-171.923-384-384s171.923-384 384-384v0zM512 21.333v0c-235.641 0-426.667 191.025-426.667 426.667s191.025 426.667 426.667 426.667c235.641 0 426.667-191.025 426.667-426.667s-191.025-426.667-426.667-426.667v0zM682.667 405.333c23.564 0 42.667 19.103 42.667 42.667s-19.103 42.667-42.667 42.667c-23.564 0-42.667-19.103-42.667-42.667s19.103-42.667 42.667-42.667v0zM512 405.333c23.564 0 42.667 19.103 42.667 42.667s-19.103 42.667-42.667 42.667c-23.564 0-42.667-19.103-42.667-42.667s19.103-42.667 42.667-42.667v0zM341.333 405.333c23.564 0 42.667 19.103 42.667 42.667s-19.103 42.667-42.667 42.667c-23.564 0-42.667-19.103-42.667-42.667s19.103-42.667 42.667-42.667v0z" />
<glyph unicode="&#xe933;" glyph-name="ellipsis" d="M256 362.667c47.128 0 85.333 38.205 85.333 85.333s-38.205 85.333-85.333 85.333c-47.128 0-85.333-38.205-85.333-85.333s38.205-85.333 85.333-85.333zM597.333 448c0-47.128-38.205-85.333-85.333-85.333s-85.333 38.205-85.333 85.333c0 47.128 38.205 85.333 85.333 85.333s85.333-38.205 85.333-85.333zM853.333 448c0-47.128-38.205-85.333-85.333-85.333s-85.333 38.205-85.333 85.333c0 47.128 38.205 85.333 85.333 85.333s85.333-38.205 85.333-85.333z" />
<glyph unicode="&#xe934;" glyph-name="email" d="M938.667 739.291v7.338c0 23.733-18.946 42.704-42.317 42.704h-768.699c-22.891 0-42.317-19.119-42.317-42.704v-7.308l426.954-349.326 426.379 349.296zM938.667 684.194v-477.451l-308.109 224.080c0 0-1.842-1.040-5.067-2.863l313.176 256.235zM938.667 153.985v-4.614c0-23.585-19.426-42.704-42.317-42.704h-768.699c-23.371 0-42.317 18.971-42.317 42.704v4.597l342.91 249.192 1.406-0.68 68.841-56.324c7.858-6.43 19.16-6.43 27.018 0l65.803 53.839 5.52 2.598 341.835-248.607zM85.333 206.742v477.451l308.939-252.768-308.939-224.683z" />
<glyph unicode="&#xe935;" glyph-name="examine" d="M456.711 106.667h-201.877c0.444 0 1.165-0.693 1.165-1.932v686.532c0-1.189-0.762-1.932-1.459-1.932h557.585c-0.467 0-1.459 0.94-1.459 2.333v-429.242c0-11.782 9.551-21.333 21.333-21.333s21.333 9.551 21.333 21.333v429.242c0 22.701-18.609 40.334-41.208 40.334h-557.585c-22.637 0-41.208-18.122-41.208-40.734v-686.532c0-22.715 18.755-40.734 41.501-40.734h201.877c11.782 0 21.333 9.551 21.333 21.333s-9.551 21.333-21.333 21.333v0zM539.554 133.677l84.252-84.557c8.305-8.335 21.791-8.372 30.142-0.083l171.748 170.49c8.362 8.3 8.411 21.808 0.111 30.17s-21.808 8.411-30.17 0.111l-171.748-170.49 30.142-0.083-84.252 84.557c-8.316 8.346-21.824 8.371-30.17 0.055s-8.371-21.824-0.055-30.17v0zM384 618.667h213.333c11.782 0 21.333 9.551 21.333 21.333s-9.551 21.333-21.333 21.333h-213.333c-11.782 0-21.333-9.551-21.333-21.333s9.551-21.333 21.333-21.333v0zM384 490.667h298.667c11.782 0 21.333 9.551 21.333 21.333s-9.551 21.333-21.333 21.333h-298.667c-11.782 0-21.333-9.551-21.333-21.333s9.551-21.333 21.333-21.333v0zM384 362.667h170.667c11.782 0 21.333 9.551 21.333 21.333s-9.551 21.333-21.333 21.333h-170.667c-11.782 0-21.333-9.551-21.333-21.333s9.551-21.333 21.333-21.333v0zM384 234.667h85.333c11.782 0 21.333 9.551 21.333 21.333s-9.551 21.333-21.333 21.333h-85.333c-11.782 0-21.333-9.551-21.333-21.333s9.551-21.333 21.333-21.333v0z" />
<glyph unicode="&#xe936;" glyph-name="expand" d="M823.163 789.333h-161.83c-11.782 0-21.333 9.551-21.333 21.333s9.551 21.333 21.333 21.333h192.098c23.786 0 42.568-18.992 42.568-42.568v-192.098c0-11.782-9.551-21.333-21.333-21.333s-21.333 9.551-21.333 21.333v161.83l-219.582-219.582c-8.331-8.331-21.839-8.331-30.17 0s-8.331 21.839 0 30.17l219.582 219.582zM200.837 106.667h161.83c11.782 0 21.333-9.551 21.333-21.333s-9.551-21.333-21.333-21.333h-192.098c-23.786 0-42.568 18.992-42.568 42.568v192.098c0 11.782 9.551 21.333 21.333 21.333s21.333-9.551 21.333-21.333v-161.83l219.582 219.582c8.331 8.331 21.839 8.331 30.17 0s8.331-21.839 0-30.17l-219.582-219.582z" />
<glyph unicode="&#xe937;" glyph-name="export" d="M542.044 106.667h-287.21c0.444 0 1.165-0.693 1.165-1.932v686.532c0-1.189-0.762-1.932-1.459-1.932h557.585c-0.467 0-1.459 0.94-1.459 2.333v-343.908c0-11.782 9.551-21.333 21.333-21.333s21.333 9.551 21.333 21.333v343.908c0 22.701-18.609 40.334-41.208 40.334h-557.585c-22.637 0-41.208-18.122-41.208-40.734v-686.532c0-22.715 18.755-40.734 41.501-40.734h287.21c11.782 0 21.333 9.551 21.333 21.333s-9.551 21.333-21.333 21.333v0zM682.667 117.892v202.108c0 11.782 9.551 21.333 21.333 21.333s21.333-9.551 21.333-21.333v-206.886l90.098 90.098c8.331 8.331 21.839 8.331 30.17 0s8.331-21.839 0-30.17l-124.128-124.128c-8.331-8.331-21.839-8.331-30.17 0l-128.906 128.906c-8.331 8.331-8.331 21.839 0 30.17s21.839 8.331 30.17 0l90.098-90.098zM384 618.667h213.333c11.782 0 21.333 9.551 21.333 21.333s-9.551 21.333-21.333 21.333h-213.333c-11.782 0-21.333-9.551-21.333-21.333s9.551-21.333 21.333-21.333v0zM384 490.667h298.667c11.782 0 21.333 9.551 21.333 21.333s-9.551 21.333-21.333 21.333h-298.667c-11.782 0-21.333-9.551-21.333-21.333s9.551-21.333 21.333-21.333v0zM384 362.667h128c11.782 0 21.333 9.551 21.333 21.333s-9.551 21.333-21.333 21.333h-128c-11.782 0-21.333-9.551-21.333-21.333s9.551-21.333 21.333-21.333v0zM384 234.667h85.333c11.782 0 21.333 9.551 21.333 21.333s-9.551 21.333-21.333 21.333h-85.333c-11.782 0-21.333-9.551-21.333-21.333s9.551-21.333 21.333-21.333v0z" />
<glyph unicode="&#xe938;" glyph-name="filter" d="M597.409 221.807c0-11.749-5.678-29.223-12.274-38.457l-96.295-134.813c-34.295-48.014-62.097-39.358-62.097 19.939v353.925l-248.756 384.505c-18.228 28.201-0.324 67.762 30.666 67.762h606.695c30.99 0 48.894-39.561 30.666-67.762l-248.604-384.505v-200.593zM554.102 213.333v220.533l256.078 396.199c0.79 1.222 0.467 1.935 5.167 1.935h-606.695c4.701 0 4.378-0.713 5.167-1.935l255.437-395.207v-336.724l84.845 115.2z" />
<glyph unicode="&#xe939;" glyph-name="folder_add" d="M599.718 149.333h-407.855c-11.673 0-21.197 9.614-21.197 21.625v511.416c0 12.165 9.352 21.625 21.458 21.625h213.083c16.62 0 39.528-12.23 48.811-26.155l37.793-56.69c17.079-25.618 53.42-45.155 84.082-45.155h298.876c11.632 0 21.229-9.66 21.229-21.385v-149.281c0-11.782 9.551-21.333 21.333-21.333s21.333 9.551 21.333 21.333v149.281c0 35.227-28.637 64.052-63.895 64.052h-298.876c-16.367 0-39.4 12.382-48.582 26.155l-37.793 56.69c-17.206 25.809-53.443 45.155-84.312 45.155h-213.083c-35.782 0-64.125-28.673-64.125-64.292v-511.416c0-35.486 28.535-64.292 63.863-64.292h407.855c11.782 0 21.333 9.551 21.333 21.333s-9.551 21.333-21.333 21.333v0zM768 234.667h-106.667c-11.782 0-21.333 9.551-21.333 21.333s9.551 21.333 21.333 21.333h106.667v106.667c0 11.782 9.551 21.333 21.333 21.333s21.333-9.551 21.333-21.333v-106.667h106.667c11.782 0 21.333-9.551 21.333-21.333s-9.551-21.333-21.333-21.333h-106.667v-106.667c0-11.782-9.551-21.333-21.333-21.333s-21.333 9.551-21.333 21.333v106.667z" />
<glyph unicode="&#xe93a;" glyph-name="folder" d="M170.667 682.375c0 12.165 9.352 21.625 21.458 21.625h213.083c16.62 0 39.528-12.23 48.811-26.155l37.793-56.69c17.079-25.618 53.42-45.155 84.082-45.155h298.876c11.75 0 21.229-9.454 21.229-21.145v-384.377c0-11.685-9.44-21.145-21.052-21.145h-683.23c-11.577 0-21.052 9.598-21.052 21.625v511.416zM128 682.375v-511.416c0-35.47 28.454-64.292 63.718-64.292h683.23c35.195 0 63.718 28.582 63.718 63.811v384.377c0 35.28-28.606 63.811-63.895 63.811h-298.876c-16.367 0-39.4 12.382-48.582 26.155l-37.793 56.69c-17.206 25.809-53.443 45.155-84.312 45.155h-213.083c-35.782 0-64.125-28.673-64.125-64.292v0z" />
<glyph unicode="&#xe93b;" glyph-name="format_align_center" d="M170.667 64h682.667v85.333h-682.667v-85.333zM170.667 405.333h682.667v85.333h-682.667v-85.333zM170.667 746.667h682.667v85.333h-682.667v-85.333zM298.667 576h426.667v85.333h-426.667v-85.333zM298.667 234.667h426.667v85.333h-426.667v-85.333z" />
<glyph unicode="&#xe93c;" glyph-name="format_align_justify" d="M213.333 64h597.333v85.333h-597.333v-85.333zM213.333 405.333h597.333v85.333h-597.333v-85.333zM213.333 576h597.333v85.333h-597.333v-85.333zM213.333 234.667h597.333v85.333h-597.333v-85.333zM213.333 746.667h597.333v85.333h-597.333v-85.333z" />
<glyph unicode="&#xe93d;" glyph-name="format_align_left" d="M170.667 64h682.667v85.333h-682.667v-85.333zM170.667 405.333h682.667v85.333h-682.667v-85.333zM170.667 576h426.667v85.333h-426.667v-85.333zM170.667 234.667h426.667v85.333h-426.667v-85.333zM170.667 746.667h682.667v85.333h-682.667v-85.333z" />
<glyph unicode="&#xe93e;" glyph-name="format_align_right" d="M853.333 149.333h-682.667v-85.333h682.667v85.333zM853.333 490.667h-682.667v-85.333h682.667v85.333zM853.333 661.333h-426.667v-85.333h426.667v85.333zM853.333 320h-426.667v-85.333h426.667v85.333zM853.333 832h-682.667v-85.333h682.667v85.333z" />
<glyph unicode="&#xe93f;" glyph-name="format_bold" d="M672.18 464.798c32.931 34.461 53.153 81.14 53.153 132.535 0 105.823-86.073 192-192.25 192h-277.083v-682.667h319.893c106.409 0 192.107 85.961 192.107 192 0 70.826-38.528 132.853-95.82 166.131zM341.333 405.333h234.27c59.13 0 107.063-47.346 107.063-106.667 0-58.91-47.461-106.667-107.063-106.667h-234.27v213.333zM341.333 704h191.685c59.084 0 106.982-47.346 106.982-106.667 0-58.91-47.986-106.667-106.982-106.667h-191.685v213.333z" />
<glyph unicode="&#xe940;" glyph-name="format_color_text" d="M213.333 64h597.333v85.333h-597.333zM364.916 405.597l294.262 0.007 70.35-146.718 76.945 36.895-237.589 495.503c-25.669 53.533-88.116 53.496-113.767 0l-237.589-495.503 76.945-36.895 70.443 146.71zM618.391 490.667h-212.629l106.387 221.571 106.241-221.571z" />
<glyph unicode="&#xe941;" glyph-name="format_italic" d="M540.769 704h-114.102v85.333h298.667v-85.333h-95.816l-146.286-512h71.436v-85.333h-298.667v85.333h138.483z" />
<glyph unicode="&#xe942;" glyph-name="format_underlined" d="M682.667 789.333c0-47.552 0-47.552 0-213.427v-85.147c0-94.222-76.564-170.76-170.667-170.76-94.422 0-170.667 76.166-170.667 170.76v298.573h-85.333v-298.573c0-141.741 114.469-256.093 256-256.093 141.225 0 256 114.736 256 256.093v85.147c0 165.875 0 165.875 0 213.427h-85.333zM213.333 64h597.333v85.333h-597.333v-85.333z" />
<glyph unicode="&#xe943;" glyph-name="gear" d="M936.854 487.363l-0.48-0.057c-1.709 16.747-14.99 30.030-31.681 31.681h-19.518v0.269c-20.908 0-39.043 12.053-47.735 29.65-2.079 4.321-3.682 8.906-4.532 13.814-3.947 10.933-8.374 21.6-13.387 31.999 0 0 0 0.053-0.052 0.053-2.507 3.682-4.537 7.683-6.032 11.947v0.056c-1.969 5.545-3.040 11.573-3.040 17.757 0 14.721 5.92 28.057 15.629 37.655h-0.052l10.823 10.827c0.163 0.106 0.269 0.212 0.427 0.371 0.11 0.163 0.269 0.268 0.375 0.427 12.638 13.012 13.281 33.28 2.026 47.095l0.216 0.159c-8.321 9.972-17.016 19.519-26.135 28.588-9.334 9.388-19.091 18.291-29.28 26.718l-0.106-0.106c-12.479 10.241-30.399 10.559-43.307 1.118l-7.787-7.783-7.362-7.255-0.318 0.321c-15.519-15.572-38.293-19.519-57.495-11.788-2.613 1.014-5.119 2.295-7.571 3.735-12.269 5.92-24.907 11.145-37.92 15.625-2.295 0.587-4.533 1.387-6.775 2.295l-0.052 0.053c-6.348 2.506-12.373 6.453-17.546 11.625-8.696 8.696-13.708 19.682-15.202 30.985-0.586 4.427-0.586 8.907 0 13.334v9.176c0 17.493-12.638 31.999-29.28 34.984-2.079 0.212-4.106 0.375-6.238 0.534h0.053c-11.737 0.909-23.575 1.443-35.521 1.443-11.947 0-23.787-0.534-35.523-1.493-2.079-0.159-4.158-0.321-6.237-0.533-16.643-2.935-29.281-17.493-29.281-34.932v-15.841c0-22.88-14.399-42.4-34.614-49.918-1.279-0.537-2.613-0.961-3.947-1.336-14.238-4.801-28-10.506-41.228-17.122-0.106 0-0.106-0.053-0.159-0.053-1.065-0.586-2.079-1.065-3.199-1.599-6.775-3.093-14.242-4.801-22.188-4.801-14.717 0-28.051 5.973-37.654 15.628l-0.053-0.105-11.251 11.198c-12.373 12.373-31.47 13.708-45.28 4.105-1.603-1.277-3.201-2.612-4.695-3.89l-0.212-0.216c-9.067-7.679-17.814-15.678-26.188-24.052s-16.374-17.065-23.999-26.082l-0.053-0.053c-1.387-1.599-2.722-3.199-4.053-4.849-9.709-13.868-8.321-33.015 4.053-45.39l11.198-11.198c16.109-16.163 19.734-40.055 10.828-59.68-0.533-1.23-1.12-2.454-1.815-3.627-6.559-13.228-12.263-26.99-17.012-41.067-0.427-1.546-0.959-2.988-1.546-4.427v-0.053c-2.56-6.718-6.559-13.119-12.053-18.506-10.4-10.4-23.999-15.629-37.655-15.629v-0.159h-15.841c-17.493 0-31.999-12.585-34.985-29.228-0.212-2.026-0.427-4.105-0.586-6.237-0.961-11.466-1.44-23.84-1.44-35.522v-0.586c0-11.785 0.48-23.414 1.44-34.879v-0.053c0.159-2.079 0.374-4.158 0.586-6.242 2.987-16.639 17.44-29.277 34.881-29.277h15.946c22.669 0 42.029-14.189 49.708-34.188v-0.053c0.533-1.334 0.961-2.669 1.283-4 0.052-0.053 0.052-0.163 0.159-0.269 4.748-14.185 10.506-27.945 17.065-41.228 0.052-0.053 0.109-0.159 0.163-0.212 0.586-1.014 1.065-2.079 1.599-3.203 3.093-6.771 4.854-14.29 4.854-22.184 0-14.721-5.973-28.053-15.629-37.654l0.053-0.053-10.824-10.828c-0.163-0.105-0.268-0.265-0.427-0.369-0.163-0.163-0.269-0.269-0.374-0.427-11.841-12.216-13.176-30.827-4-44.482 1.546-1.864 3.093-3.731 4.639-5.547 7.573-8.96 15.52-17.545 23.84-25.866 8.321-8.321 16.959-16.321 25.919-23.893 1.814-1.546 3.629-3.040 5.439-4.533 12.322-8.321 28.695-7.999 40.748 0.802l15.091 15.091 0.321-0.269c16.163 16.109 40.108 19.735 59.786 10.775 1.014-0.427 2.026-0.961 2.987-1.44 0.053-0.053 0.163-0.053 0.269-0.159 13.387-6.67 27.254-12.428 41.598-17.281 1.228-0.374 2.453-0.798 3.629-1.226 6.987-2.617 13.546-6.669 19.199-12.267 10.4-10.402 15.629-23.999 15.629-37.655h0.159v-15.676c0-18.348 13.92-33.493 31.84-35.307v-0.216c12.854-1.226 25.866-1.81 39.096-1.81 13.224 0 26.236 0.586 39.143 1.81l-0.053 0.216c17.867 1.814 31.893 16.959 31.893 35.307v15.841c0 21.386 12.589 39.786 30.721 48.266 3.68 1.757 7.573 3.040 11.625 3.894 11.682 4.105 23.044 8.797 34.082 14.185 3.199 2.079 6.665 3.841 10.237 5.119 5.763 2.189 12.057 3.413 18.669 3.413 13.493 0 25.866-5.066 35.307-13.44 1.599-1.387 3.144-2.881 4.586-4.532l9.066-9.119 0.057 0.052c12.479-12.479 32.051-13.708 45.918-3.682 0.053 0 0.105 0.057 0.159 0.163 1.171 0.959 2.295 1.867 3.415 2.824 9.334 7.895 18.294 16.109 26.879 24.696 8.585 8.585 16.855 17.545 24.695 26.879l3.040 3.682c9.758 13.383 8.907 31.999-2.4 44.531l-0.053 0.053-2.56 2.506-9.921 9.921v0.053c-15.893 15.893-19.628 39.306-11.254 58.719 0.802 1.814 1.652 3.629 2.665 5.335 6.295 12.801 11.789 26.078 16.484 39.733 0.533 1.811 1.067 3.627 1.811 5.335 2.56 6.666 6.559 12.85 11.945 18.238 10.347 10.347 24.003 15.576 37.655 15.576v0.053h15.307v0.212c18.987 0 34.506 14.933 35.412 33.655l0.534-0.053c1.067 12.316 1.599 24.744 1.599 37.223-0.003 13.284-0.641 26.403-1.813 39.368v0zM730.079 447.999c0-24.853-4.105-48.746-11.788-70.983-2.881-8.48-6.348-16.747-10.186-24.695-10.615-21.814-24.853-41.603-41.76-58.666-16.959-17.012-36.693-31.254-58.455-41.972-8.052-4-16.372-7.467-24.906-10.4-22.237-7.787-46.13-11.947-70.983-12.053h-0.644c-24.638 0-48.266 4.053-70.344 11.572-8.907 2.987-17.493 6.559-25.76 10.612-21.704 10.615-41.334 24.695-58.24 41.601-17.065 16.961-31.306 36.642-41.971 58.452-4.11 8.214-7.683 16.747-10.669 25.495-7.571 22.131-11.731 45.814-11.783 70.504 0.053 24.642 4.158 49.443 11.783 71.521 2.988 8.801 6.559 17.334 10.616 25.544 10.718 21.761 24.906 41.495 41.972 58.456 17.065 16.959 36.854 31.148 58.666 41.812 8.158 3.947 16.639 7.467 25.334 10.402 22.079 7.518 45.708 11.572 70.345 11.572h0.639c24.91-0.106 48.803-4.322 71.041-12 8.533-2.934 16.855-6.453 24.853-10.4 21.814-10.718 41.548-25.013 58.509-41.972 16.855-16.959 30.933-36.642 41.597-58.24 3.947-8.109 7.467-16.48 10.4-25.122 7.63-22.184 11.789-46.025 11.789-70.773v-0.269h-0.057v0.003z" />
<glyph unicode="&#xe944;" glyph-name="gold_o" d="M572.844 746.667c11.932 0 25.088-9.167 29.085-19.687l66.089-173.958c4.131-10.873-1.953-19.687-13.973-19.687h-284.046c-11.848 0-17.987 9.167-14.010 19.687l65.755 173.958c4.11 10.873 17.285 19.687 29.047 19.687h122.054zM402.178 533.333c11.932 0 25.088-9.167 29.085-19.688l66.089-173.958c4.131-10.873-1.953-19.688-13.973-19.688h-284.046c-11.848 0-17.987 9.167-14.010 19.688l65.755 173.958c4.11 10.873 17.285 19.688 29.047 19.688h122.054zM743.511 533.333c11.932 0 25.088-9.167 29.085-19.688l66.089-173.958c4.131-10.873-1.953-19.688-13.973-19.688h-284.046c-11.848 0-17.987 9.167-14.010 19.688l65.755 173.958c4.11 10.873 17.285 19.688 29.047 19.688h122.054zM231.511 320c11.932 0 25.088-9.167 29.085-19.688l66.089-173.958c4.131-10.873-1.953-19.688-13.973-19.688h-284.046c-11.848 0-17.987 9.167-14.010 19.688l65.755 173.958c4.11 10.873 17.285 19.688 29.047 19.688h122.054zM572.844 320c11.932 0 25.088-9.167 29.085-19.688l66.089-173.958c4.131-10.873-1.953-19.688-13.973-19.688h-284.046c-11.848 0-17.987 9.167-14.010 19.688l65.755 173.958c4.11 10.873 17.285 19.688 29.047 19.688h122.054zM914.178 320c11.932 0 25.088-9.167 29.085-19.688l66.089-173.958c4.131-10.873-1.953-19.688-13.973-19.688h-284.046c-11.848 0-17.987 9.167-14.010 19.688l65.755 173.958c4.11 10.873 17.285 19.688 29.047 19.688h122.054z" />
<glyph unicode="&#xe945;" glyph-name="group_add_o" d="M949.125 293.9c7.67 14.906 4.458 40.43 2.813 53.629-2.425 12.12 2.425-19.392 0 0-8.164 40.783-59.654 46.661-92.836 58.538-30.769 10.987-77.287 26.074-74.356 63.604v0c4.26 3.702 8.303 7.212 12.1 10.216 14.47 11.447 25.362 43.164 31.050 63.199 2.9 2.267 6.324 4.312 10.068 8.055 6.224 6.221 9.013 22.583 6.648 30.885-2.445 8.544-6.588 15.978-6.669 24.866-0.121 14.281-2.566 27.694-4.607 41.732-3.88 26.401-14.55 53.206-34.899 71.426-23.091 20.658-72.51 32.871-107.267 23.315 13.805-23.71 22.796-51.066 27.096-80.339 0.591-4.020 0.591-4.020 1.213-8.136 1.349-8.921 1.709-11.344 2.311-15.708 1.989-14.421 3.037-26.162 3.14-38.28 0.002-0.26 0.32-1.628 1.645-5.397 0.665-1.867 0.665-1.867 1.484-4.121 1.962-5.407 3.060-8.628 4.247-12.778 7.394-25.975-0.18-63.91-19.844-83.574-3.455-3.455-5.605-2.312-7.092-7.090-12.025-38.647-26.154-68.614-46.498-87.609-1.084-1.013 0.648-3.248 8.769-7.551 27.154 8.368 50.997 12.552 79.023 12.552 31.289 0 57.363-5.215 88.652-15.644s57.363-31.289 78.222-52.148c12.634-12.634 25.268-27.181 35.585-43.641v0zM356.837 739.468c-30.047 9.759-66.873 10.706-89.103-4.108-56.946-18.967-65.474-84.818-65.474-135.741-13.56-13.554-10.427-32.461-2.425-48.479 2.93-2.929 6.608-8.322 10.912-9.393 1.657-0.416 2.67-0.926 3.322-1.571 4.464-17.606 12.083-41.889 22.087-52.241 5.297-5.481 11.262-11.703 17.782-17.884 0.302-7.311-0.377-15.1-3.179-20.716-11.155-22.28-32.798-31.309-55.572-37.49-24.391-6.625-47.731-16.463-71.476-24.845-37.021-13.089-43.69-54.963-34.94-88.898 5.517-21.432 40.78-20.886 59.937-23.936 9.851-1.565 19.721-3.021 29.609-4.367 11.432 33.557 35.44 60.746 72.629 73.9 7.302 2.579 14.185 5.11 25.903 9.491 1.617 0.604 1.617 0.604 3.239 1.211 33.968 12.705 49.787 18.204 70.401 23.806 28.339 7.695 50.736 16.593 43.852 23.669-2.277 2.34-4.887 5.038-8.039 8.302-18.536 19.19-29.409 66.6-35.384 71.511-3.354 2.756-6.546 5.979-9.926 9.719-3.062 3.447-3.253 3.663-3.217 3.626-3.248 3.248-6.187 6.879-8.002 11.108-31.108 72.466-1.164 94.512-1.048 99.393 1.265 53.2 9.568 98.467 28.11 133.935v0zM625.031 374.115c-9.992 10.99-15.899 24.374-14.599 41.030v0c5.753 5.001 11.212 9.743 16.339 13.8 19.539 15.463 34.246 58.309 41.927 85.374 3.915 3.063 8.539 5.825 13.595 10.881 8.404 8.404 12.17 30.507 8.977 41.722-3.302 11.542-8.896 21.584-9.005 33.59-0.164 19.292-3.465 37.411-6.221 56.375-5.239 35.664-19.647 71.874-47.125 96.487-37.165 33.263-124.838 50.317-169.289 20.684-76.895-25.623-88.41-114.579-88.41-183.369-18.31-18.31-14.080-43.85-3.274-65.489 3.957-3.957 8.923-11.242 14.735-12.688 2.238-0.561 3.605-1.251 4.486-2.123 6.028-23.783 16.315-56.586 29.824-70.571 7.152-7.404 15.207-15.809 24.012-24.159 0.407-9.876-0.509-20.399-4.293-27.985-15.062-30.098-44.287-42.295-75.040-50.645-32.936-8.95-64.452-22.239-96.514-33.563-49.99-17.682-58.995-74.248-47.179-120.091 7.449-28.952 55.065-28.215 80.934-32.335 56.484-8.977 113.46-15.308 170.544-18.774 15.172 0 30.307 0.071 45.415 0.251-1.913 12.306-2.869 24.749-2.869 38.149 0 31.289 5.215 62.578 15.644 88.652 10.43 31.289 31.289 57.363 52.148 78.222 13.041 13.041 28.121 26.082 45.238 36.575v0zM725.333 192h-64.098c-12.068 0-21.235-9.551-21.235-21.333 0-11.437 9.507-21.333 21.235-21.333h64.098v-64.098c0-12.068 9.551-21.235 21.333-21.235 11.437 0 21.333 9.507 21.333 21.235v64.098h64.098c12.068 0 21.235 9.551 21.235 21.333 0 11.437-9.507 21.333-21.235 21.333h-64.098v64.098c0 12.068-9.551 21.235-21.333 21.235-11.437 0-21.333-9.507-21.333-21.235v-64.098zM610.133 34.133c-17.067 17.067-34.133 38.4-42.667 64s-12.8 46.933-12.8 72.533c0 25.6 4.267 51.2 12.8 72.533 8.533 25.6 25.6 46.933 42.667 64s38.4 34.133 64 42.667c25.6 8.533 46.933 12.8 72.533 12.8s46.933-4.267 72.533-12.8c25.6-8.533 46.933-25.6 64-42.667s34.133-38.4 42.667-64c8.533-25.6 12.8-46.933 12.8-72.533s-4.267-46.933-12.8-72.533c-8.533-25.6-25.6-46.933-42.667-64s-38.4-34.133-64-42.667c-25.6-8.533-46.933-12.8-72.533-12.8s-46.933 4.267-72.533 12.8c-21.333 8.533-42.667 21.333-64 42.667v0z" />
<glyph unicode="&#xe946;" glyph-name="group_o" d="M875.364 268.389c7.849 0.909 15.702 1.915 23.561 3.028 19.695 2.788 40.258 6.019 59.306 11.877 22.058 6.787 17.048 46.56 14.847 64.235-2.424 12.12 2.424-19.392 0 0-8.161 40.783-59.629 46.661-92.797 58.538-30.757 10.987-77.254 26.074-74.325 63.604v0c4.258 3.702 8.3 7.212 12.095 10.216 14.464 11.447 25.351 43.164 31.037 63.199 2.898 2.267 6.321 4.312 10.064 8.055 6.221 6.221 9.009 22.583 6.646 30.885-2.444 8.544-6.585 15.978-6.666 24.866-0.121 14.281-2.565 27.694-4.605 41.732-3.878 26.401-14.544 53.206-34.885 71.426-27.253 24.392-91.197 37.010-124.382 15.92 11.508-21.936 19.148-46.668 23.008-72.945 0.591-4.020 0.591-4.020 1.213-8.136 1.349-8.921 1.709-11.344 2.311-15.708 1.989-14.421 3.037-26.162 3.14-38.28 0.002-0.26 0.32-1.628 1.645-5.397 0.665-1.867 0.665-1.867 1.484-4.121 1.962-5.407 3.060-8.628 4.247-12.778 7.394-25.975-0.18-63.91-19.844-83.574-3.455-3.455-5.605-2.312-7.092-7.090-12.025-38.647-26.154-68.614-46.498-87.609-1.824-1.703 4.319-6.866 35.43-19.503 8.040-3.266 7.626-3.115 30.916-11.435 4.891-1.751 10.503-3.524 18.756-5.963 5.555-1.632 5.555-1.632 11.439-3.352 4.833-1.419 8.592-2.543 12.302-3.688 58.202-17.975 93.648-40.573 107.646-88.001v0 0zM178.318 269.797c-9.887 1.346-19.758 2.802-29.609 4.367-19.157 3.050-54.42 2.505-59.937 23.936-8.75 33.935-2.081 75.809 34.94 88.898 23.744 8.383 47.085 18.22 71.476 24.845 22.774 6.181 44.417 15.21 55.572 37.49 2.803 5.616 3.481 13.405 3.179 20.716-6.52 6.181-12.486 12.403-17.782 17.884-10.004 10.352-17.622 34.635-22.087 52.241-0.653 0.645-1.665 1.156-3.322 1.571-4.304 1.071-7.982 6.464-10.912 9.393-8.002 16.018-11.135 34.925 2.425 48.479 0 50.923 8.528 116.774 65.474 135.741 22.229 14.813 59.055 13.867 89.103 4.108-18.542-35.469-26.845-80.736-28.11-133.935-0.116-4.881-30.060-26.928 1.048-99.393 1.815-4.229 4.754-7.86 8.002-11.108-0.037 0.037 0.154-0.179 3.217-3.626 3.38-3.74 6.571-6.962 9.926-9.719 5.976-4.91 16.849-52.321 35.384-71.511 3.152-3.264 5.763-5.962 8.039-8.302 6.884-7.076-15.513-15.975-43.852-23.669-20.614-5.602-36.433-11.1-70.401-23.806-1.623-0.607-1.623-0.607-3.239-1.211-11.718-4.381-18.602-6.912-25.903-9.491-37.189-13.154-61.198-40.343-72.629-73.9v0 0zM610.432 415.146c-3.957-50.699 58.856-71.079 100.404-85.921 44.805-16.045 114.333-23.985 125.357-79.078 3.274-26.196-3.274 16.372 0 0 2.974-23.876 9.741-77.604-20.056-86.773-25.732-7.913-53.51-12.279-80.115-16.045-88.847-12.579-177.066-15.062-266.568-15.062-57.085 3.465-114.060 9.796-170.544 18.774-25.868 4.12-73.484 3.384-80.934 32.335-11.815 45.842-2.811 102.408 47.179 120.091 32.062 11.324 63.579 24.613 96.514 33.563 30.753 8.35 59.977 20.547 75.040 50.645 3.784 7.586 4.7 18.109 4.293 27.985-8.804 8.35-16.859 16.755-24.012 24.159-13.508 13.985-23.795 46.788-29.824 70.571-0.882 0.871-2.249 1.561-4.486 2.123-5.812 1.446-10.778 8.732-14.735 12.688-10.806 21.639-15.035 47.179 3.274 65.489 0 68.791 11.515 157.747 88.41 183.369 44.451 29.634 132.124 12.579 169.289-20.684 27.478-24.613 41.886-60.823 47.125-96.487 2.756-18.965 6.058-37.083 6.221-56.375 0.109-12.006 5.703-22.048 9.005-33.59 3.193-11.215-0.573-33.318-8.977-41.722-5.056-5.056-9.68-7.818-13.595-10.881-7.681-27.065-22.389-69.911-41.927-85.374-5.127-4.058-10.587-8.799-16.339-13.8v0 0z" />
<glyph unicode="&#xe947;" glyph-name="hatch_o" d="M607.94 101.263c-38.455-22.511-72.624-57.593-152.241-18.416-25.886 12.76-129.518 67.449-163.221 85.040-34.824 18.191-49.755 15.198-76.698-2.193l-13.307-8.777c-19.546-12.892-43.21-5.736-52.692 15.62l-60.932 137.23c-9.555 21.519-0.371 46.907 21.266 56.972 0 0 65.037 30.933 112.455 49.918 74.864 29.916 109.121 4.132 151.976-23.057 18.113-11.493 77.121-55.225 77.121-55.225s58.942-34.914 117.226-34.914c89.293 0 105.013-5.1 105.013-34.101 0-31.721-58.218-34.048-58.452-34.048h-143.18c-48.664 0-117.026 28.447-117.026 28.447s57.896-62.558 117.026-62.558h143.512c31.732 0.633 91.718 15.72 91.718 68.147 0 68.226-61.165 68.226-138.621 68.226-6.036 0-11.513 1.002-16.935 2.128 2.961 1.603 5.912 3.206 9.586 5.299 13.816 7.927 32.365 19.262 53.394 32.511 55.202 34.747 83.582 39.146 111.149 2.304 19.204 19.786 43.354 25.218 64.027 25.218 23.337 0 43.088-15.632 37.544-40.872 59.889 35.907 89.424 21.445 102.552 4.122 17.356-22.917 5.478-46.765-32.656-74.074-24.415-17.525-256.784-173.752-289.607-192.947zM494.506 855.086l178.708-77.29-12.865 19.581v-115.037c0-96.782-70.121-187.47-162.294-209.315h9.84c-92.173 21.845-162.294 112.533-162.294 209.315v115.037l-12.865-19.581 178.708 77.29h-16.937zM511.443 894.247c-5.404 2.337-11.533 2.337-16.937 0l-178.708-77.29c-7.809-3.377-12.865-11.072-12.865-19.581v-115.037c0-116.367 83.519-224.381 195.121-250.831 3.235-0.767 6.605-0.767 9.84 0 111.603 26.45 195.121 134.465 195.121 250.831v115.037c0 8.508-5.056 16.203-12.865 19.581l-178.708 77.29zM418.133 780.8l67.048-117.991h-48.642v-16.433h57.845v-32.209h-57.845v-16.433h57.845v-51.6h28.923v51.6h58.174v16.433h-58.174v32.209h58.174v16.433h-48.971l67.048 117.991h-32.538l-58.174-107.802-58.174 107.802z" />
<glyph unicode="&#xe948;" glyph-name="heart_o" d="M691.957 789.333c-130.673 0-178.816-117.715-178.816-117.715s-55.020 117.715-178.816 117.715c-135.267 0-206.326-115.091-206.326-230.182 0-191.017 385.142-428.104 385.142-428.104s382.858 234.767 382.858 428.104c0 117.383-73.369 230.182-204.043 230.182v0z" />
<glyph unicode="&#xe949;" glyph-name="heart" d="M691.957 789.333c130.673 0 204.043-112.798 204.043-230.182 0-193.337-382.858-428.104-382.858-428.104s-385.142 237.087-385.142 428.104c0 115.091 71.059 230.182 206.326 230.182 123.796 0 178.816-117.715 178.816-117.715s48.143 117.715 178.816 117.715zM584.265 700.864c-9.984-10.357-18.278-21.535-24.876-32.642-3.78-6.363-6.010-10.93-6.756-12.755-14.079-34.426-62.396-35.61-78.144-1.915-0.95 2.033-3.543 6.812-7.772 13.392-7.326 11.4-16.297 22.858-26.832 33.465-29.070 29.268-63.812 46.258-105.559 46.258-98.694 0-163.659-80.865-163.659-187.515 0-22.166 7.44-47.582 22.322-75.735 28.861-54.599 83.225-115.269 155.468-177.656 40.917-35.334 84.919-68.968 128.932-99.701 15.405-10.756 36.31-23.96 36.31-23.96s22.44 14.989 34.858 23.649c43.725 30.492 87.44 63.921 128.088 99.108 74.765 64.723 130.156 127.736 157.77 184.179 12.617 25.789 18.918 49.273 18.918 70.116 0 106.619-65.431 187.515-161.376 187.515-44.778 0-79.829-16.899-107.693-45.803z" />
<glyph unicode="&#xe94a;" glyph-name="hide" d="M710.87 677.102c-65.239 44.677-132.988 69.565-202.384 69.565-109.25 0-207.56-54.796-293.526-145.309-29.708-31.279-55.821-64.72-78.177-98.171-7.837-11.727-14.655-22.636-20.43-32.459-3.514-5.978-5.93-10.325-7.222-12.774-3.273-6.204-3.287-13.62-0.039-19.836 1.281-2.452 3.679-6.803 7.167-12.784 5.732-9.827 12.505-20.74 20.296-32.471 22.225-33.462 48.23-66.913 77.869-98.202 20.129-21.249 41.291-40.776 63.473-58.209 9.264-7.28 22.675-5.673 29.955 3.591s5.673 22.675-3.591 29.955c-20.472 16.090-40.112 34.212-58.862 54.006-27.829 29.378-52.356 60.927-73.303 92.465-7.319 11.019-13.656 21.231-18.983 30.362-3.146 5.394-5.225 9.168-6.209 11.049l-0.039-19.836c0.994 1.885 3.093 5.662 6.267 11.060 5.371 9.135 11.756 19.351 19.123 30.375 21.084 31.549 45.729 63.108 73.64 92.496 78.66 82.82 166.939 132.025 262.589 132.025 59.909 0 119.628-21.938 178.276-62.101 9.721-6.657 22.998-4.174 29.655 5.548s4.174 22.998-5.548 29.655v0zM376.272 177.175c2.763-1.182 5.534-2.328 8.313-3.438 39.997-15.978 81.356-24.404 123.9-24.404 103.123 0 201.158 54.632 291.451 144.914 31.157 31.153 59.179 64.463 83.679 97.781 8.586 11.676 16.128 22.534 22.575 32.307 3.915 5.935 6.626 10.241 8.077 12.649 4.071 6.751 4.086 15.197 0.041 21.964-1.421 2.377-4.075 6.627-7.91 12.486-6.313 9.645-13.705 20.368-22.126 31.906-24.028 32.921-51.56 65.897-82.236 96.826-2.352 2.371-4.716 4.724-7.092 7.056-8.408 8.254-21.915 8.129-30.169-0.279s-8.129-21.915 0.279-30.169c2.24-2.199 4.469-4.417 6.688-6.654 29.050-29.29 55.231-60.647 78.066-91.934 7.981-10.935 14.963-21.064 20.89-30.12 3.509-5.362 5.857-9.122 6.989-11.015l0.041 21.964c-1.161-1.926-3.565-5.745-7.154-11.185-6.060-9.185-13.191-19.452-21.334-30.526-23.297-31.682-49.957-63.373-79.474-92.886-83.061-83.051-171.65-132.419-261.283-132.419-36.956 0-72.972 7.337-108.072 21.359-2.46 0.983-4.914 1.998-7.363 3.045-10.833 4.633-23.371-0.392-28.004-11.225s0.392-23.371 11.225-28.004v0zM610.702 560.066c-27.072 23.86-61.875 37.267-98.702 37.267-82.475 0-149.333-66.859-149.333-149.333 0-35.37 12.364-68.894 34.542-95.521 7.54-9.053 20.992-10.279 30.045-2.739s10.279 20.992 2.739 30.045c-15.85 19.030-24.659 42.916-24.659 68.215 0 58.91 47.756 106.667 106.667 106.667 26.339 0 51.139-9.554 70.491-26.61 8.839-7.79 22.32-6.94 30.11 1.899s6.94 22.32-1.899 30.11v0zM499.726 299.165c4.069-0.332 8.162-0.498 12.274-0.498 82.475 0 149.333 66.859 149.333 149.333 0 3.576-0.126 7.138-0.377 10.682-0.832 11.753-11.035 20.605-22.787 19.773s-20.605-11.035-19.773-22.787c0.18-2.541 0.27-5.098 0.27-7.668 0-58.91-47.756-106.667-106.667-106.667-2.954 0-5.891 0.12-8.807 0.357-11.743 0.957-22.039-7.787-22.996-19.53s7.787-22.039 19.53-22.996v0zM207.085 112.915l640 640c8.331 8.331 8.331 21.839 0 30.17s-21.839 8.331-30.17 0l-640-640c-8.331-8.331-8.331-21.839 0-30.17s21.839-8.331 30.17 0v0z" />
<glyph unicode="&#xe94b;" glyph-name="history" d="M469.333 426.667c0-11.782 9.551-21.333 21.333-21.333h170.667c11.782 0 21.333 9.551 21.333 21.333s-9.551 21.333-21.333 21.333h-149.333v149.333c0 11.782-9.551 21.333-21.333 21.333s-21.333-9.551-21.333-21.333v-170.667zM160.909 648.534h73.757c11.782 0 21.333-9.551 21.333-21.333s-9.551-21.333-21.333-21.333h-128c-11.782 0-21.333 9.551-21.333 21.333v128c0 11.782 9.551 21.333 21.333 21.333s21.333-9.551 21.333-21.333v-78.958c79.628 122.050 218.553 198.424 371.296 198.424 242.513 0 439.37-190.875 439.37-426.667s-196.858-426.667-439.37-426.667c-185.718 0-349.582 112.955-412.585 279.649-4.166 11.021 1.392 23.332 12.413 27.498s23.332-1.392 27.498-12.413c56.723-150.076 204.681-252.067 372.674-252.067 219.238 0 396.704 172.072 396.704 384s-177.465 384-396.704 384c-140.059 0-267.076-70.849-338.387-183.466v0z" />
<glyph unicode="&#xe94c;" glyph-name="home" d="M85.333 542.044v-456.887c0-11.685 9.583-21.158 21.094-21.158h811.146c11.65 0 21.094 9.549 21.094 21.158v456.887c0 14.524-7.13 28.088-18.999 36.145l-348.563 236.589c-33.795 22.939-84.343 22.987-118.209 0l-348.563-236.589c-11.87-8.057-18.999-21.62-18.999-36.145zM298.667 426.648c0 11.792 9.176 21.352 20.927 21.352h128.813c11.558 0 20.927-9.847 20.927-21.352v-298.629c0-11.792-9.176-21.352-20.927-21.352h-128.813c-11.558 0-20.927 9.847-20.927 21.352v298.629zM554.667 426.467c0 11.892 9.176 21.533 20.927 21.533h128.813c11.558 0 20.927-9.132 20.927-21.533v-42.267c0-11.892-9.176-21.533-20.927-21.533h-128.813c-11.558 0-20.927 9.132-20.927 21.533v42.267z" />
<glyph unicode="&#xe94d;" glyph-name="hot_o" d="M332.191 21.333c-55.677 118.34-26.026 186.148 16.765 250.037 46.861 69.963 58.939 139.222 58.939 139.222s36.838-48.917 22.102-125.423c65.080 74 77.36 191.9 67.536 237.053 147.105-105.010 209.974-332.38 125.247-500.888 450.639 260.443 112.093 650.143 53.154 694.042 19.647-43.897 23.372-118.208-16.317-154.272-67.185 260.23-233.303 313.563-233.303 313.563 19.647-134.203-71.218-280.953-158.838-390.608-3.079 53.513-6.349 90.44-33.898 141.65-6.184-97.213-78.916-176.457-98.612-273.857-26.679-131.905 19.984-228.483 197.224-330.518v0z" />
<glyph unicode="&#xe94e;" glyph-name="hot" d="M377.61 73.241c-40.67 84.628-33.132 135.161 13.791 203.746 19.993 29.222 35.002 60.297 45.788 91.298 6.516 18.728 10.215 33.462 11.791 42.307l-37.912-9.266c1.889-2.456 5.368-8.212 9.021-16.846 9.536-22.542 13.152-49.041 7.276-78.91-4.183-21.26 22.322-34.494 36.802-18.375 55.818 62.135 80.735 170.618 67.042 232.233l-33.046-22.115c128.931-90.103 180.083-283.967 108.385-423.567-9.676-18.84 11.048-38.744 29.482-28.314 191.625 108.421 252.59 251.93 210.202 409.512-27.824 103.44-106.174 212.213-159.273 250.931-17.742 12.937-41.101-6.137-31.971-26.107 17.768-38.865 14.767-92.201-9.777-114.035l34.807-10.499c-21.698 82.277-55.705 148.369-98.768 199.865-47.838 57.206-96.308 86.683-129.942 97.254-15.034 4.725-29.826-7.921-27.496-23.507 14.416-96.403-39.503-209.997-141.45-334.903l37.824-12.238c-3.775 64.241-9.911 93.102-33.763 136.507-10.275 18.699-38.602 12.401-39.985-8.891-2.182-33.584-12.948-63.499-38.193-114.472-1.842-3.719-3.468-6.98-6.988-14.024-26.755-53.577-37.866-80.124-45.078-115.043-27.623-133.704 27.152-227.612 191.729-320.367 18.182-10.247 38.743 9.015 29.703 27.826v0zM339.154 54.759l29.703 27.826c-149.679 84.358-194.363 160.965-170.893 274.565 6.223 30.127 16.335 54.288 41.466 104.612 3.522 7.050 5.178 10.37 7.050 14.15 27.591 55.711 39.887 89.876 42.536 130.641l-39.985-8.891c20.18-36.724 25.126-59.99 28.562-118.463 1.141-19.409 25.53-27.3 37.824-12.238 108.962 133.5 167.307 256.421 150.594 368.192l-27.496-23.507c5.922-1.861 17.475-6.947 32.804-16.27 26.178-15.92 52.505-38.119 77.201-67.652 39.027-46.669 70.135-107.126 90.243-183.374 4.057-15.384 22.92-21.074 34.807-10.499 40.861 36.349 44.978 109.506 20.223 163.654l-31.971-26.107c45.486-33.167 118.006-133.847 143.208-227.539 37.308-138.697-15.249-262.414-190.010-361.294l29.482-28.314c81.571 158.823 24.305 375.858-121.898 478.032-15.946 11.144-37.266-3.124-33.046-22.115 10.803-48.611-10.869-142.965-57.131-194.463l36.802-18.375c7.623 38.748 2.843 73.777-9.845 103.77-5.167 12.214-10.507 21.050-14.497 26.237-11.298 14.688-34.662 8.977-37.912-9.266-1.2-6.739-4.357-19.314-10.082-35.768-9.615-27.635-23.003-55.353-40.705-81.227-54.971-80.348-64.878-146.764-17.034-246.32v0z" />
<glyph unicode="&#xe94f;" glyph-name="id" d="M85.333 746.629v-597.259c0-23.733 18.946-42.704 42.317-42.704h768.699c22.891 0 42.317 19.119 42.317 42.704v597.259c0 23.733-18.946 42.704-42.317 42.704h-768.699c-22.891 0-42.317-19.119-42.317-42.704zM744.221 440.049c-1.889-24.201 28.095-33.929 47.928-41.014 21.388-7.659 54.577-11.449 59.839-37.748 1.563-12.504-1.563 7.815 0 0 1.42-11.397 4.65-37.044-9.574-41.421-12.283-3.777-25.543-5.861-38.243-7.659-42.411-6.005-84.522-7.19-127.246-7.19-27.249 1.654-54.446 4.676-81.409 8.962-12.348 1.967-35.078 1.615-38.633 15.435-5.64 21.883-1.342 48.884 22.521 57.325 15.305 5.406 30.349 11.749 46.071 16.021 14.68 3.986 28.63 9.808 35.82 24.175 1.807 3.621 2.244 8.644 2.049 13.359-4.203 3.986-8.048 7.998-11.462 11.532-6.448 6.676-11.359 22.334-14.236 33.687-0.421 0.416-1.073 0.745-2.142 1.013-2.774 0.69-5.145 4.168-7.034 6.057-5.158 10.329-7.177 22.521 1.563 31.261 0 32.837 5.497 75.3 42.202 87.531 21.218 14.146 63.069 6.005 80.81-9.873 13.117-11.749 19.994-29.034 22.495-46.058 1.316-9.053 2.892-17.702 2.97-26.911 0.052-5.731 2.722-10.525 4.298-16.034 1.524-5.353-0.274-15.904-4.285-19.916-2.414-2.414-4.621-3.732-6.49-5.194-3.667-12.919-10.687-33.372-20.014-40.753-2.447-1.937-5.053-4.2-7.799-6.587v0 0zM238.933 576v0c-14.138 0-25.6 9.551-25.6 21.333s11.462 21.333 25.6 21.333h204.8c14.138 0 25.6-9.551 25.6-21.333s-11.462-21.333-25.6-21.333h-204.8zM243.2 448v0c-16.495 0-29.867 9.551-29.867 21.333s13.372 21.333 29.867 21.333h238.933c16.495 0 29.867-9.551 29.867-21.333s-13.372-21.333-29.867-21.333h-238.933zM234.667 320v0c-11.782 0-21.333 9.551-21.333 21.333s9.551 21.333 21.333 21.333h170.667c11.782 0 21.333-9.551 21.333-21.333s-9.551-21.333-21.333-21.333h-170.667z" />
<glyph unicode="&#xe950;" glyph-name="inport" d="M542.044 106.667h-287.21c0.444 0 1.165-0.693 1.165-1.932v686.532c0-1.189-0.762-1.932-1.459-1.932h557.585c-0.467 0-1.459 0.94-1.459 2.333v-343.908c0-11.782 9.551-21.333 21.333-21.333s21.333 9.551 21.333 21.333v343.908c0 22.701-18.609 40.334-41.208 40.334h-557.585c-22.637 0-41.208-18.122-41.208-40.734v-686.532c0-22.715 18.755-40.734 41.501-40.734h287.21c11.782 0 21.333 9.551 21.333 21.333s-9.551 21.333-21.333 21.333v0zM682.667 266.108v-202.108c0-11.782 9.551-21.333 21.333-21.333s21.333 9.551 21.333 21.333v206.886l90.098-90.098c8.331-8.331 21.839-8.331 30.17 0s8.331 21.839 0 30.17l-124.128 124.128c-8.331 8.331-21.839 8.331-30.17 0l-128.906-128.906c-8.331-8.331-8.331-21.839 0-30.17s21.839-8.331 30.17 0l90.098 90.098zM384 618.667h213.333c11.782 0 21.333 9.551 21.333 21.333s-9.551 21.333-21.333 21.333h-213.333c-11.782 0-21.333-9.551-21.333-21.333s9.551-21.333 21.333-21.333v0zM384 490.667h298.667c11.782 0 21.333 9.551 21.333 21.333s-9.551 21.333-21.333 21.333h-298.667c-11.782 0-21.333-9.551-21.333-21.333s9.551-21.333 21.333-21.333v0zM384 362.667h128c11.782 0 21.333 9.551 21.333 21.333s-9.551 21.333-21.333 21.333h-128c-11.782 0-21.333-9.551-21.333-21.333s9.551-21.333 21.333-21.333v0zM384 234.667h85.333c11.782 0 21.333 9.551 21.333 21.333s-9.551 21.333-21.333 21.333h-85.333c-11.782 0-21.333-9.551-21.333-21.333s9.551-21.333 21.333-21.333v0z" />
<glyph unicode="&#xe951;" glyph-name="investmentandfinancing_4" d="M85.333 746.629c0 23.585 19.426 42.704 42.317 42.704h768.699c23.371 0 42.317-18.971 42.317-42.704v-597.259c0-23.585-19.426-42.704-42.317-42.704h-768.699c-23.371 0-42.317 18.971-42.317 42.704v597.259zM384 618.667l95.744-168.491h-69.461v-23.467h82.603v-45.995h-82.603v-23.467h82.603v-73.685h41.301v73.685h83.072v23.467h-83.072v45.995h83.072v23.467h-69.931l95.744 168.491h-46.464l-83.072-153.941-83.072 153.941h-46.464z" />
<glyph unicode="&#xe952;" glyph-name="ios" d="M648.64 832c-41.431-2.831-89.9-29.032-118.197-63.156-25.683-30.994-46.891-76.958-38.625-121.628 45.221-1.386 92.021 25.45 119.182 60.1 25.358 32.338 44.629 78.002 37.64 124.684v0zM812.492 574.315c-39.853 49.354-95.77 77.885-148.522 77.885-69.819 0-99.327-32.939-147.754-32.939-49.922 0-87.888 32.897-148.272 32.897-59.307 0-122.372-35.803-162.349-96.964-56.26-86.051-46.733-247.933 44.495-385.868 32.622-49.329 76.19-104.804 133.159-105.322 50.632-0.468 64.976 32.104 133.685 32.48 68.692 0.376 81.692-32.822 132.324-32.363 56.969 0.526 102.934 61.962 135.564 111.292 23.37 35.327 32.062 53.17 50.223 93.148-131.898 49.513-153.098 234.699-22.552 305.754v0z" />
<glyph unicode="&#xe953;" glyph-name="key" d="M427.626 47.134c141.85 0 256.827 114.274 256.827 255.152 0 49.566-14.253 95.801-38.85 134.961-0.621 0.869-1.221 1.717-1.841 2.586l0.041 0.103c-0.041 0.041-0.083 0.124-0.124 0.145-0.807 1.076-1.407 1.945-2.089 2.917-3.248 4.613-6.247 9.226-8.792 13.777-1.634 3.413-1.965 5.337-3.082 7.964-2.834 6.661-1.014 18.97 3.103 24.659 7.716 10.654 20.273 12.247 31.672 5.73 3.062-1.758 5.565-4.096 7.489-6.785l3.289 5.689c0.041-0.041 0.083-0.062 0.103-0.103l53 91.188h-0.083l1.696 2.938c-3.331 0.29-6.64 1.283-9.723 3.062-11.419 6.537-15.308 21.039-8.709 32.416 6.599 11.357 21.204 15.246 32.603 8.73 3.082-1.8 5.606-4.179 7.53-6.889l1.448 2.462c0-0.041 0.021-0.041 0.041-0.041l56.579 97.373c-3.372 0.29-6.723 1.262-9.847 3.082-11.398 6.516-15.246 20.108-10.488 32.354 4.199 10.736 18.473 12.784 31.010 12.329 11.957 0 11.688 8.709 12.35 12.040-0.207 4.634-0.496 8.875-0.765 12.929 2.213 32.499-3.455 65.743-22.611 76.728h-69.425c-49.669 0-84.651-1.448-103.827-34.464l-166.322-286.182c-13.736 2.234-27.824 3.475-42.201 3.475-141.85 0-256.827-114.254-256.827-255.173 0-140.878 114.978-255.152 256.827-255.152v0 0 0zM426.678 426.667c70.685 0 127.989-57.303 127.989-128 0-70.674-57.304-128-127.989-128s-128.011 57.326-128.011 128c0 70.697 57.326 128 128.011 128v0 0 0zM512 298.667c0-47.128-38.205-85.333-85.333-85.333s-85.333 38.205-85.333 85.333c0 47.128 38.205 85.333 85.333 85.333s85.333-38.205 85.333-85.333z" />
<glyph unicode="&#xe954;" glyph-name="leave" d="M768 213.333v-106.863c0 0.191 0.006 0.197 0.267 0.197h-512.534c0.015 0 0.267-0.248 0.267-0.408v683.482c0-0.355-0.054-0.408-0.267-0.408h512.534c-0.034 0-0.267 0.232-0.267 0.197v-106.863c0-11.782 9.551-21.333 21.333-21.333s21.333 9.551 21.333 21.333v106.863c0 23.649-18.918 42.47-42.4 42.47h-512.534c-23.227 0-42.4-18.924-42.4-42.259v-683.482c0-23.532 18.977-42.259 42.4-42.259h512.534c23.274 0 42.4 19.067 42.4 42.47v106.863c0 11.782-9.551 21.333-21.333 21.333s-21.333-9.551-21.333-21.333v0zM759.163 426.667h-332.497c-11.782 0-21.333 9.551-21.333 21.333s9.551 21.333 21.333 21.333h332.497l-91.582 91.582c-8.331 8.331-8.331 21.839 0 30.17s21.839 8.331 30.17 0l128-128c8.331-8.331 8.331-21.839 0-30.17l-128-128c-8.331-8.331-21.839-8.331-30.17 0s-8.331 21.839 0 30.17l91.582 91.582z" />
<glyph unicode="&#xe955;" glyph-name="link" d="M384 448c0 23.564 19.242 42.667 42.273 42.667h171.454c23.347 0 42.273-18.938 42.273-42.667 0-23.564-19.242-42.667-42.273-42.667h-171.454c-23.347 0-42.273 18.938-42.273 42.667v0zM640 618.667h42.738c94.124 0 170.596-76.556 170.596-170.667 0-94.322-76.332-170.667-170.757-170.667h-42.576c-23.564 0-42.667-19.103-42.667-42.667s19.103-42.667 42.667-42.667h42.576c141.557 0 256.090 114.553 256.090 256 0 141.217-114.655 256-255.929 256h-42.738c-23.564 0-42.667-19.103-42.667-42.667s19.103-42.667 42.667-42.667v0zM384 277.333h-43.031c-93.949 0-170.302 76.543-170.302 170.667 0 94.258 76.449 170.667 170.794 170.667h42.539c23.564 0 42.667 19.103 42.667 42.667s-19.103 42.667-42.667 42.667h-42.539c-141.463 0-256.127-114.603-256.127-256 0-141.204 114.511-256 255.636-256h43.031c23.564 0 42.667 19.103 42.667 42.667s-19.103 42.667-42.667 42.667v0z" />
<glyph unicode="&#xe956;" glyph-name="linkdin" d="M229.695 106.667h130.962v473.462h-130.962zM738.929 546.324c-49.614 27.813-122.858 30.169-175.644 6.1l-0.727 27.703h-130.962v-473.462h131.689v298.171l54.944 26.426c13.499 6.474 43.030 5.88 55.516-1.145 9.425-5.263 25.237-29.311 25.237-42.678v-280.774h130.962v286.28c0 61.242-38.273 123.871-91.015 153.38zM296.678 789.333c-46.069 0-83.351-37.282-83.351-83.263 0-45.959 37.282-83.241 83.351-83.241s83.307 37.282 83.307 83.241c0 45.981-37.238 83.263-83.307 83.263z" />
<glyph unicode="&#xe957;" glyph-name="location" d="M512 64c0 0-298.667 291.138-298.667 460.8s133.718 307.2 298.667 307.2c164.949 0 298.667-137.538 298.667-307.2s-298.667-460.8-298.667-460.8zM512 362.667c94.257 0 170.667 76.41 170.667 170.667s-76.41 170.667-170.667 170.667c-94.257 0-170.667-76.41-170.667-170.667s76.41-170.667 170.667-170.667zM512 405.333c70.692 0 128 57.308 128 128s-57.308 128-128 128c-70.692 0-128-57.308-128-128s57.308-128 128-128z" />
<glyph unicode="&#xe958;" glyph-name="lock" d="M576 170.659c25.908 19.46 42.667 50.444 42.667 85.341 0 58.91-47.756 106.667-106.667 106.667s-106.667-47.756-106.667-106.667c0-34.897 16.758-65.881 42.667-85.341v-0.053c0-35.565 28.654-63.939 64-63.939 35.593 0 64 28.627 64 63.939v0.053zM170.667 405.53c0 23.456 18.971 42.47 42.704 42.47h597.259c23.585 0 42.704-19.442 42.704-42.47v-341.726c0-23.456-18.971-42.47-42.704-42.47h-597.259c-23.585 0-42.704 19.442-42.704 42.47v341.726zM682.667 447.859v170.949c0 94.053-76.476 170.525-170.667 170.525-94.113 0-170.667-76.443-170.667-170.525v-170.949h-42.667v170.949c0 117.743 95.752 213.192 213.333 213.192 117.821 0 213.333-95.641 213.333-213.192v-170.949l-42.667-85.333v85.333zM576 256c0-35.346-28.654-64-64-64s-64 28.654-64 64c0 35.346 28.654 64 64 64s64-28.654 64-64zM512 234.667c11.782 0 21.333-9.551 21.333-21.333v-42.667c0-11.782-9.551-21.333-21.333-21.333s-21.333 9.551-21.333 21.333v42.667c0 11.782 9.551 21.333 21.333 21.333z" />
<glyph unicode="&#xe959;" glyph-name="meet" d="M256 490.667v-405.324c0-11.787-9.132-21.342-21.533-21.342h-42.267c-11.892 0-21.533 9.71-21.533 21.342v725.315c0 11.787 9.132 21.342 21.533 21.342h469.081c11.583 0 21.386-9.56 21.386-21.352v-298.629c0-11.505-9.575-21.352-21.386-21.352h-405.281zM426.667 448v-63.588c0-11.899 9.364-21.549 21.083-21.554l426.898-0.174c23.574-0.010 36.92 18.353 29.851 40.879l-52.127 166.104 50.221 136.835c8.141 22.182-4.494 40.164-27.943 40.164h-149.316v-256.105c0-23.506-18.98-42.562-42.478-42.562h-256.189z" />
<glyph unicode="&#xe95a;" glyph-name="menu" d="M170.667 661.333h682.667c11.782 0 21.333 9.551 21.333 21.333s-9.551 21.333-21.333 21.333h-682.667c-11.782 0-21.333-9.551-21.333-21.333s9.551-21.333 21.333-21.333v0zM170.667 405.333h682.667c11.782 0 21.333 9.551 21.333 21.333s-9.551 21.333-21.333 21.333h-682.667c-11.782 0-21.333-9.551-21.333-21.333s9.551-21.333 21.333-21.333v0zM170.667 149.333h682.667c11.782 0 21.333 9.551 21.333 21.333s-9.551 21.333-21.333 21.333h-682.667c-11.782 0-21.333-9.551-21.333-21.333s9.551-21.333 21.333-21.333v0z" />
<glyph unicode="&#xe95b;" glyph-name="mood_circle" d="M512 64v0c212.077 0 384 171.923 384 384s-171.923 384-384 384c-212.077 0-384-171.923-384-384s171.923-384 384-384v0zM512 21.333v0c-235.641 0-426.667 191.025-426.667 426.667s191.025 426.667 426.667 426.667c235.641 0 426.667-191.025 426.667-426.667s-191.025-426.667-426.667-426.667v0zM384 576c23.564 0 42.667 19.103 42.667 42.667s-19.103 42.667-42.667 42.667c-23.564 0-42.667-19.103-42.667-42.667s19.103-42.667 42.667-42.667zM640 576c23.564 0 42.667 19.103 42.667 42.667s-19.103 42.667-42.667 42.667c-23.564 0-42.667-19.103-42.667-42.667s19.103-42.667 42.667-42.667zM576 404.033v-26.756c0-34.751-28.662-63.082-64-63.082-35.269 0-64 28.486-64 63.042v28.097c0 11.782-9.551 21.333-21.333 21.333s-21.333-9.551-21.333-21.333v-28.097c0-58.201 47.914-105.708 106.667-105.708 58.793 0 106.667 47.322 106.667 105.749v26.756c0 11.782-9.551 21.333-21.333 21.333s-21.333-9.551-21.333-21.333v0z" />
<glyph unicode="&#xe95c;" glyph-name="move" d="M853.333 312v-205.749c0 0.131 0.282 0.415 0.408 0.415h-683.482c0.125 0 0.408-0.281 0.408-0.408v683.482c0-0.41 0.003-0.408-0.415-0.408h205.749c11.782 0 21.333 9.551 21.333 21.333s-9.551 21.333-21.333 21.333h-205.749c-23.033 0-42.251-18.99-42.251-42.259v-683.482c0-23.5 18.882-42.259 42.259-42.259h683.482c23.498 0 42.259 18.877 42.259 42.251v205.749c0 11.782-9.551 21.333-21.333 21.333s-21.333-9.551-21.333-21.333v0zM823.163 789.333l-454.248-454.248c-8.331-8.331-8.331-21.839 0-30.17s21.839-8.331 30.17 0l454.248 454.248v-161.83c0-11.782 9.551-21.333 21.333-21.333s21.333 9.551 21.333 21.333v213.333c0 11.782-9.551 21.333-21.333 21.333h-213.333c-11.782 0-21.333-9.551-21.333-21.333s9.551-21.333 21.333-21.333h161.83z" />
<glyph unicode="&#xe95d;" glyph-name="order" d="M640 746.667v42.667h170.629c23.585 0 42.704-18.984 42.704-42.385v-683.23c0-23.409-18.971-42.385-42.704-42.385h-597.259c-23.585 0-42.704 18.984-42.704 42.385v683.23c0 23.409 18.971 42.385 42.704 42.385h170.629v-42.667h-170.629c-0.166 0-0.037 0.128-0.037 0.282v-683.23c0 0.231-0.051 0.282 0.037 0.282h597.259c0.166 0 0.037-0.128 0.037-0.282v683.23c0-0.231 0.051-0.282-0.037-0.282h-170.629zM426.667 704v85.125c0 47.243 37.876 85.542 85.333 85.542 47.128 0 85.333-38.14 85.333-85.542v-85.125h85.53c23.456 0 42.47-18.938 42.47-42.667v-42.667h-426.667v42.667c0 23.564 19.442 42.667 42.47 42.667h85.53zM512 746.667c23.564 0 42.667 19.103 42.667 42.667s-19.103 42.667-42.667 42.667c-23.564 0-42.667-19.103-42.667-42.667s19.103-42.667 42.667-42.667zM426.667 448h256c11.782 0 21.333 9.551 21.333 21.333s-9.551 21.333-21.333 21.333h-256c-11.782 0-21.333-9.551-21.333-21.333s9.551-21.333 21.333-21.333v0zM426.667 320h256c11.782 0 21.333 9.551 21.333 21.333s-9.551 21.333-21.333 21.333h-256c-11.782 0-21.333-9.551-21.333-21.333s9.551-21.333 21.333-21.333v0zM426.667 192h170.667c11.782 0 21.333 9.551 21.333 21.333s-9.551 21.333-21.333 21.333h-170.667c-11.782 0-21.333-9.551-21.333-21.333s9.551-21.333 21.333-21.333v0zM341.333 469.333c0-11.782-9.551-21.333-21.333-21.333s-21.333 9.551-21.333 21.333c0 11.782 9.551 21.333 21.333 21.333s21.333-9.551 21.333-21.333zM341.333 341.333c0-11.782-9.551-21.333-21.333-21.333s-21.333 9.551-21.333 21.333c0 11.782 9.551 21.333 21.333 21.333s21.333-9.551 21.333-21.333zM341.333 213.333c0-11.782-9.551-21.333-21.333-21.333s-21.333 9.551-21.333 21.333c0 11.782 9.551 21.333 21.333 21.333s21.333-9.551 21.333-21.333z" />
<glyph unicode="&#xe95e;" glyph-name="pearson_add_done" d="M637.611 381.145c-0.689 5.126-0.845 10.505-0.404 16.155v0c7.995 6.95 15.582 13.54 22.707 19.179 27.154 21.49 47.594 81.035 58.269 118.649 5.442 4.257 11.868 8.096 18.894 15.122 11.68 11.68 16.913 42.398 12.477 57.984-4.589 16.041-12.363 29.997-12.514 46.683-0.228 26.811-4.816 51.992-8.646 78.348-7.281 49.565-27.304 99.888-65.492 134.094-51.651 46.228-173.496 69.929-235.272 28.745-106.866-35.609-122.869-159.237-122.869-254.84-25.446-25.446-19.568-60.942-4.551-91.014 5.499-5.499 12.401-15.624 20.478-17.634 3.11-0.78 5.010-1.739 6.235-2.95 8.378-33.053 22.675-78.642 41.448-98.077 9.94-10.291 21.135-21.971 33.37-33.576 0.566-13.725-0.707-28.349-5.966-38.893-20.933-41.829-61.548-58.78-104.287-70.384-45.773-12.439-89.573-30.907-134.132-46.645-69.474-24.574-81.989-103.188-65.568-166.898 10.353-40.236 76.528-39.212 112.479-44.938 78.5-12.477 157.682-21.275 237.017-26.091 45.611 0 90.983 0.464 136.246 1.914-20.091 20.468-39.831 45.78-49.883 75.936-10.43 31.289-15.644 57.363-15.644 88.652s5.215 62.578 15.644 88.652c10.43 31.289 31.289 57.363 52.148 78.222 16.148 16.148 35.421 32.295 57.819 43.605zM610.133 34.133c-17.067 17.067-34.133 38.4-42.667 64s-12.8 46.933-12.8 72.533c0 25.6 4.267 51.2 12.8 72.533 8.533 25.6 25.6 46.933 42.667 64s38.4 34.133 64 42.667c25.6 8.533 46.933 12.8 72.533 12.8s46.933-4.267 72.533-12.8c25.6-8.533 46.933-25.6 64-42.667s34.133-38.4 42.667-64c8.533-25.6 12.8-46.933 12.8-72.533s-4.267-46.933-12.8-72.533c-8.533-25.6-25.6-46.933-42.667-64s-38.4-34.133-64-42.667c-25.6-8.533-46.933-12.8-72.533-12.8s-46.933 4.267-72.533 12.8c-21.333 8.533-42.667 21.333-64 42.667v0 0zM702.389 84.616c8.305-8.335 21.791-8.372 30.142-0.083l114.499 113.66c8.362 8.3 8.411 21.808 0.111 30.17s-21.808 8.411-30.17 0.111l-98.997-99.050-41.528 41.679c-8.316 8.346-21.824 8.371-30.17 0.055s-8.371-21.824-0.055-30.17l56.168-56.372z" />
<glyph unicode="&#xe95f;" glyph-name="pearson_add" d="M637.611 381.145c-0.689 5.126-0.845 10.505-0.404 16.155v0c7.995 6.95 15.582 13.54 22.707 19.179 27.154 21.49 47.594 81.035 58.269 118.649 5.442 4.257 11.868 8.096 18.894 15.122 11.68 11.68 16.913 42.398 12.477 57.984-4.589 16.041-12.363 29.997-12.514 46.683-0.228 26.811-4.816 51.992-8.646 78.348-7.281 49.565-27.304 99.888-65.492 134.094-51.651 46.228-173.496 69.929-235.272 28.745-106.866-35.609-122.869-159.237-122.869-254.84-25.446-25.446-19.568-60.942-4.551-91.014 5.499-5.499 12.401-15.624 20.478-17.634 3.11-0.78 5.010-1.739 6.235-2.95 8.378-33.053 22.675-78.642 41.448-98.077 9.94-10.291 21.135-21.971 33.37-33.576 0.566-13.725-0.707-28.349-5.966-38.893-20.933-41.829-61.548-58.78-104.287-70.384-45.773-12.439-89.573-30.907-134.132-46.645-69.474-24.574-81.989-103.188-65.568-166.898 10.353-40.236 76.528-39.212 112.479-44.938 78.5-12.477 157.682-21.275 237.017-26.091 45.611 0 90.983 0.464 136.246 1.914-20.091 20.468-39.831 45.78-49.883 75.936-10.43 31.289-15.644 57.363-15.644 88.652s5.215 62.578 15.644 88.652c10.43 31.289 31.289 57.363 52.148 78.222 16.148 16.148 35.421 32.295 57.819 43.605v0zM725.333 192h-64.098c-12.068 0-21.235-9.551-21.235-21.333 0-11.437 9.507-21.333 21.235-21.333h64.098v-64.098c0-12.068 9.551-21.235 21.333-21.235 11.437 0 21.333 9.507 21.333 21.235v64.098h64.098c12.068 0 21.235 9.551 21.235 21.333 0 11.437-9.507 21.333-21.235 21.333h-64.098v64.098c0 12.068-9.551 21.235-21.333 21.235-11.437 0-21.333-9.507-21.333-21.235v-64.098zM610.133 34.133c-17.067 17.067-34.133 38.4-42.667 64s-12.8 46.933-12.8 72.533c0 25.6 4.267 51.2 12.8 72.533 8.533 25.6 25.6 46.933 42.667 64s38.4 34.133 64 42.667c25.6 8.533 46.933 12.8 72.533 12.8s46.933-4.267 72.533-12.8c25.6-8.533 46.933-25.6 64-42.667s34.133-38.4 42.667-64c8.533-25.6 12.8-46.933 12.8-72.533s-4.267-46.933-12.8-72.533c-8.533-25.6-25.6-46.933-42.667-64s-38.4-34.133-64-42.667c-25.6-8.533-46.933-12.8-72.533-12.8s-46.933 4.267-72.533 12.8c-21.333 8.533-42.667 21.333-64 42.667v0z" />
<glyph unicode="&#xe960;" glyph-name="pearson_circle" d="M85.333 448c0 235.641 190.973 426.667 426.667 426.667 235.641 0 426.667-190.973 426.667-426.667 0-235.641-190.973-426.667-426.667-426.667-235.641 0-426.667 190.973-426.667 426.667zM800.166 194.169c-0.24 2.031-0.477 3.928-0.692 5.657-10.308 51.515-75.321 58.94-117.217 73.943-38.85 13.878-97.584 32.935-93.884 80.342 5.379 4.676 10.484 9.11 15.278 12.904 18.27 14.459 32.022 54.522 39.205 79.83 3.661 2.864 7.985 5.447 12.713 10.175 7.859 7.859 11.38 28.526 8.395 39.013-3.087 10.793-8.318 20.183-8.42 31.409-0.153 18.039-3.24 34.981-5.817 52.714-4.899 33.348-18.371 67.207-44.065 90.222-34.752 31.103-116.732 47.050-158.296 19.341-71.902-23.959-82.669-107.138-82.669-171.462-17.121-17.121-13.166-41.003-3.062-61.236 3.7-3.7 8.343-10.512 13.778-11.865 2.092-0.525 3.371-1.17 4.195-1.985 5.637-22.239 15.256-52.912 27.887-65.989 6.688-6.924 14.22-14.783 22.452-22.591 0.381-9.235-0.476-19.074-4.014-26.168-14.084-28.143-41.411-39.549-70.167-47.356-30.797-8.369-60.267-20.795-90.247-31.384-26.469-9.362-42.042-26.553-48.565-47.488 70.436-84.458 176.459-138.194 295.048-138.194 114.793 0 217.805 50.349 288.166 130.169v0z" />
<glyph unicode="&#xe961;" glyph-name="pearson" d="M637.207 397.301c-5.499-70.459 81.796-98.783 139.538-119.41 62.269-22.299 158.896-33.334 174.217-109.9 4.551-36.406-4.551 22.754 0 0 4.134-33.182 13.538-107.852-27.873-120.594-35.761-10.998-74.366-17.065-111.341-22.299-123.476-17.482-246.080-20.933-370.466-20.933-79.334 4.816-158.517 13.614-237.017 26.091-35.951 5.726-102.126 4.702-112.479 44.938-16.421 63.71-3.906 142.324 65.568 166.898 44.559 15.738 88.36 34.206 134.132 46.645 42.739 11.604 83.354 28.556 104.287 70.384 5.26 10.543 6.532 25.167 5.966 38.893-12.236 11.605-23.431 23.285-33.37 33.576-18.773 19.435-33.070 65.024-41.448 98.077-1.225 1.211-3.125 2.17-6.235 2.95-8.078 2.010-14.979 12.135-20.478 17.634-15.017 30.073-20.895 65.568 4.551 91.014 0 95.603 16.003 219.231 122.869 254.84 61.776 41.184 183.621 17.482 235.272-28.745 38.188-34.206 58.211-84.53 65.492-134.094 3.83-26.356 8.419-51.537 8.646-78.348 0.152-16.686 7.926-30.641 12.514-46.683 4.437-15.586-0.796-46.304-12.477-57.984-7.027-7.027-13.453-10.866-18.894-15.122-10.675-37.614-31.115-97.159-58.269-118.649-7.125-5.639-14.713-12.229-22.707-19.179v0z" />
<glyph unicode="&#xe962;" glyph-name="pencil" d="M115.623 46.624c2.047-1.458 5.606-3.919 10.317-7.053 7.825-5.206 16.065-10.412 24.38-15.298 5.524-3.246 10.908-6.245 16.105-8.95 18.796-9.78 33.977-15.324 46.908-15.324 18.453 0 30.128 6.556 55.529 25.597 17.259 12.938 24.595 17.070 29.805 17.070 5.101 0 12.268-4.063 29.547-17.052 25.166-18.919 37.146-25.614 55.787-25.614 18.465 0 30.19 6.577 55.569 25.595 17.277 12.947 24.593 17.072 29.764 17.072 5.829 0 13.833-4.391 30.93-17.114 26.468-19.697 36.654-25.552 54.403-25.552 18.915 0 32.277 7.217 56.996 25.523 17.961 13.301 24.553 17.144 28.338 17.144 6.346 0 14.928-4.602 31.923-17.158 27.69-20.458 36.295-25.509 53.41-25.509 19.773 0 33.564 7.448 57.525 25.694 17.59 13.395 23.638 16.972 27.808 16.972 15.906 0 32.44-6.461 48.388-17.527 9.946-6.901 17.292-13.776 20.949-17.921 7.795-8.835 21.276-9.678 30.111-1.882s9.678 21.276 1.882 30.111c-5.754 6.522-15.506 15.647-28.619 24.746-22.484 15.601-46.891 25.14-72.711 25.14-17.886 0-26.983-5.381-53.658-25.694-16.489-12.556-24.666-16.972-31.676-16.972-3.509 0-9.946 3.777-28.056 17.158-24.611 18.184-38.272 25.509-57.277 25.509-17.319 0-26.467-5.333-53.73-25.523-17.026-12.608-25.423-17.144-31.603-17.144-4.362 0-11.267 3.969-28.93 17.114-24.968 18.581-37.676 25.552-56.403 25.552-18.359 0-29.814-6.459-55.35-25.595-17.216-12.901-24.652-17.072-29.983-17.072-5.542 0-13.039 4.19-30.148 17.052-25.595 19.242-36.838 25.614-55.185 25.614-18.388 0-29.9-6.485-55.396-25.597-17.222-12.91-24.63-17.070-29.937-17.070-3.952 0-14.245 3.759-27.214 10.507-4.509 2.346-9.26 4.993-14.184 7.886-12.988 7.632-24.535 15.313-31.558 20.316-9.596 6.836-22.917 4.598-29.753-4.998s-4.598-22.917 4.998-29.753v0zM714.937 831.917c16.541 16.541 43.555 16.343 59.841 0.058l121.236-121.236c16.509-16.509 16.34-43.443-0.058-59.841l-377.344-377.344-181.019 181.019 377.344 377.344zM249.145 214.19c-6.693-22.755 6.325-35.778 29.084-29.084l215.242 63.306-181.019 181.019-63.306-215.242z" />
<glyph unicode="&#xe963;" glyph-name="phone" d="M490.667 149.333h42.667c11.782 0 21.333-9.551 21.333-21.333s-9.551-21.333-21.333-21.333h-42.667c-11.782 0-21.333 9.551-21.333 21.333s9.551 21.333 21.333 21.333zM298.667 832.35v0-42.667c0 0.030 0.186 0.019 0.106 0.019h426.456c0.011 0 0.106 0.005 0.106-0.019v42.667c0-0.030-0.186-0.019-0.106-0.019h-426.456c-0.011 0-0.106-0.005-0.106 0.019v0zM298.667 192.35v0-128c0 0.089 0.186 0.058 0.106 0.058h426.456c0.011 0 0.106 0.016 0.106-0.058v128c0-0.089-0.186-0.058-0.106-0.058h-426.456c-0.011 0-0.106-0.016-0.106 0.058v0zM256 832.35c0 23.371 19.446 42.317 42.772 42.317h426.456c23.622 0 42.772-19.426 42.772-42.317v-768.699c0-23.371-19.446-42.317-42.772-42.317h-426.456c-23.622 0-42.772 19.426-42.772 42.317v768.699z" />
<glyph unicode="&#xe964;" glyph-name="picture_circle" d="M561.577 368.17c-39.258-32.686-126.813-105.584-214.368-178.483-9.051-7.536-22.503-6.314-30.046 2.729s-6.32 22.483 2.731 30.020l168.262 140.094-15.069 11.93c-25.959 20.551-66.999 20.457-93.18-0.269l-183.385-145.179c-43.198 62.115-68.522 137.595-68.522 218.988 0 212.077 171.923 384 384 384s384-171.923 384-384c0-27.029-2.793-53.406-8.105-78.858-6.454 5.378-13.25 11.042-27.412 22.844-54.459 45.382-54.459 45.382-72.612 60.51-34.902 29.085-90.435 28.867-125.572-0.414l-139.947-116.622c-0.005 0.004-0.011 0.008-0.016 0.013zM512 21.333c235.641 0 426.667 191.025 426.667 426.667s-191.025 426.667-426.667 426.667c-235.641 0-426.667-191.025-426.667-426.667s191.025-426.667 426.667-426.667zM384 597.333c0-35.346-28.654-64-64-64s-64 28.654-64 64c0 35.346 28.654 64 64 64s64-28.654 64-64z" />
<glyph unicode="&#xe965;" glyph-name="picture" d="M128 746.629v0-597.259c0-0.181-0.143-0.037-0.35-0.037h768.699c-0.52 0-0.35 0.17-0.35 0.037v597.259c0 0.181 0.143 0.037 0.35 0.037h-768.699c0.52 0 0.35-0.17 0.35-0.037v0 0zM85.333 746.629c0 23.585 19.426 42.704 42.317 42.704h768.699c23.371 0 42.317-18.971 42.317-42.704v-597.259c0-23.585-19.426-42.704-42.317-42.704h-768.699c-23.371 0-42.317 18.971-42.317 42.704v597.259zM380.256 373.615c26.181 20.727 67.221 20.82 93.18 0.269l15.069-11.93-168.262-140.094c-9.051-7.536-10.274-20.976-2.731-30.020s20.995-10.265 30.046-2.729l315.090 262.393c35.138 29.281 90.671 29.499 125.572 0.414 18.153-15.127 18.153-15.127 72.612-60.51l39.435-29.598v-213.017c-3.917 0.133-776.534-0.037-776.534-0.037 4.473 0 0 25.423 0 25.423l256.523 199.435zM320 533.333c35.346 0 64 28.654 64 64s-28.654 64-64 64c-35.346 0-64-28.654-64-64s28.654-64 64-64v0z" />
<glyph unicode="&#xe966;" glyph-name="plus" d="M490.667 426.667h-320c-11.782 0-21.333 9.551-21.333 21.333s9.551 21.333 21.333 21.333h320v277.333c0 11.782 9.551 21.333 21.333 21.333s21.333-9.551 21.333-21.333v-277.333h320c11.782 0 21.333-9.551 21.333-21.333s-9.551-21.333-21.333-21.333h-320v-277.333c0-11.782-9.551-21.333-21.333-21.333s-21.333 9.551-21.333 21.333v277.333z" />
</font>
</defs>
</svg>
